<svg width="275" height="70" viewBox="0 0 275 70" fill="none" xmlns="http://www.w3.org/2000/svg">
<g filter="url(#filter0_d)">
<path d="M24.6403 5.96235e-06C53.6403 1.94586e-05 170.64 -1.26343e-05 252.64 5.96235e-06C276.853 1.14535e-05 276.64 61.9999 252.64 62C228.64 62 50.6403 62 24.6403 62C-1.35967 62 -4.35969 -7.53392e-06 24.6403 5.96235e-06Z" fill="#6BBF73"/>
<path d="M24.6403 1.50001H252.64C257.926 1.50001 262.034 4.84717 264.898 10.3773C267.766 15.9164 269.233 23.4111 269.22 30.9974C269.207 38.5834 267.715 46.08 264.839 51.6215C261.966 57.1578 257.869 60.5 252.64 60.5H24.6403C18.8341 60.5 14.1917 57.0658 10.88 51.5412C7.5591 46.0015 5.6977 38.5201 5.51488 30.9637C5.33197 23.4035 6.83333 15.9496 10.0454 10.4433C13.2266 4.9898 18.0321 1.5 24.6403 1.50001Z" stroke="#6BBF73" stroke-width="3"/>
</g>
<path d="M59.848 41V40.175C60.348 40.175 60.7314 40.0417 60.998 39.775C61.2647 39.5083 61.4814 39.1417 61.648 38.675C61.8314 38.2083 62.0397 37.6667 62.273 37.05L67.423 23.025H68.023L73.598 37.25C73.7314 37.6 73.8814 38.05 74.048 38.6C74.2147 39.15 74.2814 39.6167 74.248 40C74.5314 39.9833 74.8147 39.9667 75.098 39.95C75.3814 39.9333 75.6647 39.9167 75.948 39.9V41H70.223V40.175C70.8564 40.1583 71.273 40.0167 71.473 39.75C71.673 39.4833 71.748 39.1667 71.698 38.8C71.648 38.4333 71.5647 38.1 71.448 37.8L70.573 35.45L64.073 35.6L63.198 38.275C63.0814 38.675 62.973 38.9917 62.873 39.225C62.7897 39.4583 62.6897 39.7167 62.573 40C62.9064 39.9833 63.2314 39.9667 63.548 39.95C63.8814 39.9333 64.2064 39.9167 64.523 39.9V41H59.848ZM64.448 34.525H70.223L68.448 29.75C68.2647 29.2333 68.073 28.725 67.873 28.225C67.6897 27.7083 67.5064 27.1917 67.323 26.675H67.273C67.1064 27.1417 66.9314 27.6083 66.748 28.075C66.5814 28.5417 66.4064 29.0167 66.223 29.5L64.448 34.525ZM77.0225 40.175C77.6558 40.1417 78.0891 40 78.3225 39.75C78.5558 39.4833 78.6808 39.125 78.6975 38.675C78.7308 38.2083 78.7475 37.6833 78.7475 37.1V26.3C78.7475 25.6 78.7725 25 78.8225 24.5C78.5225 24.5167 78.2225 24.5333 77.9225 24.55C77.6225 24.5667 77.3225 24.5833 77.0225 24.6V23.5L82.9225 23.475C84.9391 23.4583 86.7058 23.7667 88.2225 24.4C89.7558 25.0333 90.9558 26 91.8225 27.3C92.6891 28.6 93.1225 30.2583 93.1225 32.275C93.1225 33.425 92.9225 34.525 92.5225 35.575C92.1225 36.625 91.5225 37.5583 90.7225 38.375C89.9225 39.175 88.9225 39.8167 87.7225 40.3C86.5391 40.7667 85.1641 41 83.5975 41H77.0225V40.175ZM80.9225 38.05C80.9225 38.9167 80.8975 39.5667 80.8475 40C81.5141 40.0333 82.0975 40.05 82.5975 40.05C83.1141 40.05 83.4225 40.05 83.5225 40.05C84.9558 40.05 86.2058 39.7083 87.2725 39.025C88.3558 38.325 89.1891 37.3833 89.7725 36.2C90.3725 35 90.6725 33.6583 90.6725 32.175C90.6725 30.5917 90.3808 29.225 89.7975 28.075C89.2308 26.9083 88.3558 26.0083 87.1725 25.375C85.9891 24.725 84.4808 24.4 82.6475 24.4C82.0308 24.4 81.5975 24.525 81.3475 24.775C81.1141 25.025 80.9808 25.375 80.9475 25.825C80.9308 26.275 80.9225 26.8 80.9225 27.4V38.05ZM95.4063 40.175C96.0396 40.1417 96.4729 40 96.7063 39.75C96.9396 39.4833 97.0646 39.125 97.0813 38.675C97.1146 38.2083 97.1313 37.6833 97.1313 37.1V26.3C97.1313 25.6 97.1563 25 97.2063 24.5C96.9063 24.5167 96.6063 24.5333 96.3063 24.55C96.0063 24.5667 95.7063 24.5833 95.4063 24.6V23.5L101.306 23.475C103.323 23.4583 105.09 23.7667 106.606 24.4C108.14 25.0333 109.34 26 110.206 27.3C111.073 28.6 111.506 30.2583 111.506 32.275C111.506 33.425 111.306 34.525 110.906 35.575C110.506 36.625 109.906 37.5583 109.106 38.375C108.306 39.175 107.306 39.8167 106.106 40.3C104.923 40.7667 103.548 41 101.981 41H95.4063V40.175ZM99.3063 38.05C99.3063 38.9167 99.2813 39.5667 99.2313 40C99.8979 40.0333 100.481 40.05 100.981 40.05C101.498 40.05 101.806 40.05 101.906 40.05C103.34 40.05 104.59 39.7083 105.656 39.025C106.74 38.325 107.573 37.3833 108.156 36.2C108.756 35 109.056 33.6583 109.056 32.175C109.056 30.5917 108.765 29.225 108.181 28.075C107.615 26.9083 106.74 26.0083 105.556 25.375C104.373 24.725 102.865 24.4 101.031 24.4C100.415 24.4 99.9813 24.525 99.7313 24.775C99.4979 25.025 99.3646 25.375 99.3313 25.825C99.3146 26.275 99.3063 26.8 99.3063 27.4V38.05ZM120.602 40.175C121.235 40.1417 121.668 40 121.902 39.75C122.135 39.4833 122.26 39.125 122.277 38.675C122.31 38.2083 122.327 37.6833 122.327 37.1V26.3C122.327 25.6 122.352 25 122.402 24.5C122.102 24.5167 121.802 24.5333 121.502 24.55C121.202 24.5667 120.902 24.5833 120.602 24.6V23.5C121.485 23.4833 122.393 23.475 123.327 23.475C124.26 23.4583 125.21 23.45 126.177 23.45C128.593 23.45 130.435 23.8583 131.702 24.675C132.985 25.4917 133.66 26.7 133.727 28.3C133.76 28.95 133.66 29.6333 133.427 30.35C133.21 31.05 132.793 31.7167 132.177 32.35C131.577 32.9667 130.727 33.4667 129.627 33.85C128.527 34.2333 127.118 34.425 125.402 34.425C125.335 34.425 125.21 34.425 125.027 34.425C124.843 34.425 124.668 34.4167 124.502 34.4V38.025C124.502 38.9083 124.477 39.5667 124.427 40C124.81 39.9667 125.193 39.9417 125.577 39.925C125.96 39.9083 126.343 39.8917 126.727 39.875V41H120.602V40.175ZM124.502 33.375C124.818 33.4083 125.085 33.4333 125.302 33.45C125.535 33.45 125.81 33.45 126.127 33.45C127.077 33.45 127.943 33.2667 128.727 32.9C129.51 32.5167 130.135 31.975 130.602 31.275C131.068 30.575 131.302 29.7417 131.302 28.775C131.302 27.725 131.077 26.8833 130.627 26.25C130.193 25.6 129.585 25.1333 128.802 24.85C128.035 24.5667 127.143 24.425 126.127 24.425C125.543 24.425 125.135 24.55 124.902 24.8C124.685 25.05 124.56 25.4 124.527 25.85C124.51 26.2833 124.502 26.8 124.502 27.4V33.375ZM135.641 41V40.175C136.274 40.1417 136.707 40 136.941 39.75C137.174 39.4833 137.299 39.125 137.316 38.675C137.349 38.2083 137.366 37.6833 137.366 37.1V26.3C137.366 25.6 137.391 25 137.441 24.5C137.141 24.5167 136.841 24.5333 136.541 24.55C136.241 24.5667 135.941 24.5833 135.641 24.6V23.5H141.266V24.325C140.649 24.3417 140.216 24.4833 139.966 24.75C139.732 25.0167 139.599 25.375 139.566 25.825C139.549 26.275 139.541 26.8 139.541 27.4V38.125C139.541 38.9917 139.516 39.6417 139.466 40.075L144.141 40C145.191 39.9833 145.982 39.65 146.516 39C147.066 38.35 147.341 37.2917 147.341 35.825H148.191L148.041 41H135.641ZM148.984 41V40.175C149.484 40.175 149.867 40.0417 150.134 39.775C150.4 39.5083 150.617 39.1417 150.784 38.675C150.967 38.2083 151.175 37.6667 151.409 37.05L156.559 23.025H157.159L162.734 37.25C162.867 37.6 163.017 38.05 163.184 38.6C163.35 39.15 163.417 39.6167 163.384 40C163.667 39.9833 163.95 39.9667 164.234 39.95C164.517 39.9333 164.8 39.9167 165.084 39.9V41H159.359V40.175C159.992 40.1583 160.409 40.0167 160.609 39.75C160.809 39.4833 160.884 39.1667 160.834 38.8C160.784 38.4333 160.7 38.1 160.584 37.8L159.709 35.45L153.209 35.6L152.334 38.275C152.217 38.675 152.109 38.9917 152.009 39.225C151.925 39.4583 151.825 39.7167 151.709 40C152.042 39.9833 152.367 39.9667 152.684 39.95C153.017 39.9333 153.342 39.9167 153.659 39.9V41H148.984ZM153.584 34.525H159.359L157.584 29.75C157.4 29.2333 157.209 28.725 157.009 28.225C156.825 27.7083 156.642 27.1917 156.459 26.675H156.409C156.242 27.1417 156.067 27.6083 155.884 28.075C155.717 28.5417 155.542 29.0167 155.359 29.5L153.584 34.525ZM179.833 41.4L169.858 28C169.708 27.8 169.558 27.6083 169.408 27.425C169.275 27.225 169.133 27.025 168.983 26.825H168.958L169.033 37.525C169.033 37.9417 169.033 38.3583 169.033 38.775C169.033 39.1917 169.017 39.6 168.983 40C169.283 39.9833 169.583 39.9667 169.883 39.95C170.183 39.9333 170.483 39.9167 170.783 39.9V41H166.208V40.175C166.725 40.175 167.092 40.0667 167.308 39.85C167.542 39.6167 167.692 39.35 167.758 39.05C167.825 38.7333 167.858 38.45 167.858 38.2L167.883 26.175V24.5C167.617 24.5167 167.342 24.5333 167.058 24.55C166.775 24.5667 166.492 24.5833 166.208 24.6V23.5H169.183L178.558 36.05C178.775 36.3333 178.983 36.6167 179.183 36.9C179.4 37.1833 179.617 37.4667 179.833 37.75H179.858L179.883 26.3C179.883 25.6 179.908 25 179.958 24.5C179.658 24.5167 179.358 24.5333 179.058 24.55C178.758 24.5667 178.458 24.5833 178.158 24.6V23.5H182.758V24.325C182.142 24.3417 181.717 24.4833 181.483 24.75C181.25 25.0167 181.125 25.375 181.108 25.825C181.092 26.275 181.083 26.8 181.083 27.4L181.033 41.4H179.833ZM198.301 28.775C198.285 27.7917 198.185 26.975 198.001 26.325C197.818 25.675 197.493 25.1917 197.026 24.875C196.576 24.5417 195.918 24.3833 195.051 24.4H192.926L192.901 38.025C192.901 38.9083 192.876 39.5667 192.826 40C193.176 39.9833 193.518 39.9667 193.851 39.95C194.201 39.9333 194.551 39.9167 194.901 39.9V41H189.026V40.175C189.66 40.1417 190.085 39.9917 190.301 39.725C190.535 39.4583 190.66 39.1 190.676 38.65C190.71 38.1833 190.726 37.6667 190.726 37.1L190.751 24.425L188.176 24.45C187.126 24.45 186.385 24.8 185.951 25.5C185.518 26.2 185.301 27.2917 185.301 28.775H184.376L184.526 23.5H199.101L199.251 28.775H198.301ZM211.017 28.8C210.967 28 210.776 27.2417 210.442 26.525C210.109 25.8083 209.626 25.225 208.992 24.775C208.359 24.325 207.551 24.1 206.567 24.1C205.534 24.1 204.742 24.3917 204.192 24.975C203.642 25.5583 203.367 26.2417 203.367 27.025C203.367 27.725 203.567 28.3167 203.967 28.8C204.367 29.2667 204.884 29.6833 205.517 30.05C206.167 30.4 206.851 30.7417 207.567 31.075C208.201 31.3583 208.834 31.6667 209.467 32C210.101 32.3167 210.676 32.6833 211.192 33.1C211.709 33.5167 212.117 34.0167 212.417 34.6C212.734 35.1667 212.892 35.85 212.892 36.65C212.892 38.0333 212.384 39.175 211.367 40.075C210.351 40.9583 208.909 41.4 207.042 41.4C206.292 41.4 205.517 41.2917 204.717 41.075C203.917 40.8583 203.209 40.5417 202.592 40.125L202.717 41.2H201.417L201.267 35.875H202.242C202.326 37.3417 202.834 38.4583 203.767 39.225C204.701 39.975 205.826 40.35 207.142 40.35C207.792 40.35 208.392 40.2333 208.942 40C209.492 39.75 209.926 39.3917 210.242 38.925C210.576 38.4583 210.742 37.8917 210.742 37.225C210.742 36.475 210.542 35.85 210.142 35.35C209.742 34.85 209.226 34.4167 208.592 34.05C207.959 33.6833 207.284 33.3333 206.567 33C205.934 32.7167 205.309 32.4167 204.692 32.1C204.076 31.7833 203.509 31.425 202.992 31.025C202.492 30.6083 202.084 30.1167 201.767 29.55C201.467 28.9833 201.317 28.3 201.317 27.5C201.317 27.0667 201.392 26.6 201.542 26.1C201.692 25.6 201.951 25.125 202.317 24.675C202.701 24.2083 203.217 23.8333 203.867 23.55C204.534 23.25 205.376 23.1 206.392 23.1C207.026 23.1 207.734 23.1917 208.517 23.375C209.317 23.5417 210.059 23.875 210.742 24.375L210.642 23.3H211.917V28.8H211.017Z" fill="black"/>
<defs>
<filter id="filter0_d" x="0" y="0" width="274.72" height="70" filterUnits="userSpaceOnUse" color-interpolation-filters="sRGB">
<feFlood flood-opacity="0" result="BackgroundImageFix"/>
<feColorMatrix in="SourceAlpha" type="matrix" values="0 0 0 0 0 0 0 0 0 0 0 0 0 0 0 0 0 0 127 0"/>
<feOffset dy="4"/>
<feGaussianBlur stdDeviation="2"/>
<feColorMatrix type="matrix" values="0 0 0 0 0 0 0 0 0 0 0 0 0 0 0 0 0 0 0.25 0"/>
<feBlend mode="normal" in2="BackgroundImageFix" result="effect1_dropShadow"/>
<feBlend mode="normal" in="SourceGraphic" in2="effect1_dropShadow" result="shape"/>
</filter>
</defs>
</svg>
