<svg width="39" height="37" viewBox="0 0 39 37" fill="none" xmlns="http://www.w3.org/2000/svg">
<g id="sentiment_dissatisfied_24px">
<path id="icon/social/sentiment_dissatisfied_24px" fill-rule="evenodd" clip-rule="evenodd" d="M19.4837 3.08334C10.5137 3.08334 3.25 9.99001 3.25 18.5C3.25 27.01 10.5137 33.9167 19.4837 33.9167C28.47 33.9167 35.75 27.01 35.75 18.5C35.75 9.99001 28.47 3.08334 19.4837 3.08334ZM13.8125 12.3333C12.4663 12.3333 11.375 13.3687 11.375 14.6458C11.375 15.923 12.4663 16.9583 13.8125 16.9583C15.1587 16.9583 16.25 15.923 16.25 14.6458C16.25 13.3687 15.1587 12.3333 13.8125 12.3333ZM25.1875 12.3333C23.8413 12.3333 22.75 13.3687 22.75 14.6458C22.75 15.923 23.8413 16.9583 25.1875 16.9583C26.5337 16.9583 27.625 15.923 27.625 14.6458C27.625 13.3687 26.5337 12.3333 25.1875 12.3333ZM11.18 26.9792C12.48 23.8188 15.7138 21.5833 19.5 21.5833C23.2863 21.5833 26.52 23.8188 27.82 26.9792H25.1063C23.9688 25.1446 21.905 23.8958 19.5 23.8958C17.095 23.8958 15.015 25.1446 13.8938 26.9792H11.18ZM6.5 18.5C6.5 25.3142 12.3175 30.8333 19.5 30.8333C26.6825 30.8333 32.5 25.3142 32.5 18.5C32.5 11.6858 26.6825 6.16668 19.5 6.16668C12.3175 6.16668 6.5 11.6858 6.5 18.5Z" fill="#EB5757"/>
</g>
</svg>
