<svg width="43" height="47" viewBox="0 0 43 47" fill="none" xmlns="http://www.w3.org/2000/svg">
<g filter="url(#filter0_d)">
<rect x="4.5" y="4.25" width="34" height="34" fill="white" stroke="black"/>
<rect x="10.75" y="14.25" width="2.75" height="2.75" fill="black" stroke="black"/>
<rect x="17" y="14.25" width="3.375" height="2.75" fill="black" stroke="black"/>
<rect x="23.875" y="14.25" width="2.75" height="2.75" fill="black" stroke="black"/>
<rect x="30.75" y="14.25" width="2.75" height="2.75" fill="black" stroke="black"/>
<rect x="10.75" y="19.875" width="2.75" height="2.75" fill="black" stroke="black"/>
<rect x="17" y="19.875" width="3.375" height="2.75" fill="black" stroke="black"/>
<rect x="23.875" y="19.875" width="2.75" height="2.75" fill="black" stroke="black"/>
<rect x="30.75" y="19.875" width="2.75" height="2.75" fill="black" stroke="black"/>
<rect x="10.75" y="25.5" width="2.75" height="2.75" fill="black" stroke="black"/>
<rect x="17" y="25.5" width="3.375" height="2.75" fill="black" stroke="black"/>
<rect x="23.875" y="25.5" width="2.75" height="2.75" fill="black" stroke="black"/>
<rect x="30.75" y="25.5" width="2.75" height="2.75" fill="black" stroke="black"/>
<rect x="10.75" y="31.125" width="2.75" height="2.75" fill="black" stroke="black"/>
<rect x="17" y="31.125" width="3.375" height="2.75" fill="black" stroke="black"/>
<rect x="11.5" width="2.5" height="8.75" fill="black"/>
<rect x="30.25" width="1.875" height="8.75" fill="black"/>
</g>
<defs>
<filter id="filter0_d" x="0" y="0" width="43" height="46.75" filterUnits="userSpaceOnUse" color-interpolation-filters="sRGB">
<feFlood flood-opacity="0" result="BackgroundImageFix"/>
<feColorMatrix in="SourceAlpha" type="matrix" values="0 0 0 0 0 0 0 0 0 0 0 0 0 0 0 0 0 0 127 0"/>
<feOffset dy="4"/>
<feGaussianBlur stdDeviation="2"/>
<feColorMatrix type="matrix" values="0 0 0 0 0 0 0 0 0 0 0 0 0 0 0 0 0 0 0.25 0"/>
<feBlend mode="normal" in2="BackgroundImageFix" result="effect1_dropShadow"/>
<feBlend mode="normal" in="SourceGraphic" in2="effect1_dropShadow" result="shape"/>
</filter>
</defs>
</svg>
