<svg width="70" height="35" viewBox="0 0 70 35" fill="none" xmlns="http://www.w3.org/2000/svg">
<rect x="1" y="1" width="68" height="29" fill="white" stroke="black" stroke-width="2"/>
<path d="M19.7397 17.82C19.7397 17.2333 19.6597 16.8133 19.4997 16.56C19.3397 16.3067 19.0864 16.1533 18.7397 16.1C18.393 16.0467 17.933 16.0333 17.3597 16.06L15.8997 16.12V20.7C15.8997 21.3933 15.8797 21.9133 15.8397 22.26L19.6597 22.2C20.2464 22.1867 20.753 22.0933 21.1797 21.92C21.6064 21.7333 21.9397 21.4133 22.1797 20.96C22.4197 20.5067 22.5397 19.8867 22.5397 19.1H23.2197L23.0997 23H12.7797V22.34C13.2864 22.3133 13.633 22.2 13.8197 22C14.0064 21.7867 14.1064 21.5 14.1197 21.14C14.1464 20.7667 14.1597 20.3467 14.1597 19.88V11.24C14.1597 10.68 14.1797 10.2 14.2197 9.8C13.9797 9.81333 13.7397 9.82667 13.4997 9.84C13.2597 9.85333 13.0197 9.86667 12.7797 9.88V9H22.3997L22.4997 12.5H21.8397C21.8397 11.7133 21.7197 11.12 21.4797 10.72C21.2397 10.3067 20.913 10.0333 20.4997 9.9C20.0997 9.75333 19.6464 9.68667 19.1397 9.7L17.4197 9.74C16.9264 9.75333 16.573 9.84667 16.3597 10.02C16.1464 10.1933 16.013 10.4533 15.9597 10.8C15.9197 11.1333 15.8997 11.5733 15.8997 12.12V15.32L19.6597 15.34L19.5197 13.62H20.3997V17.82H19.7397ZM25.2211 22.34C25.7278 22.3133 26.0744 22.2 26.2611 22C26.4478 21.7867 26.5478 21.5 26.5611 21.14C26.5878 20.7667 26.6011 20.3467 26.6011 19.88V11.24C26.6011 10.68 26.6211 10.2 26.6611 9.8C26.4211 9.81333 26.1811 9.82667 25.9411 9.84C25.7011 9.85333 25.4611 9.86667 25.2211 9.88V9L29.9411 8.98C31.5544 8.96667 32.9678 9.21333 34.1811 9.72C35.4078 10.2267 36.3678 11 37.0611 12.04C37.7544 13.08 38.1011 14.4067 38.1011 16.02C38.1011 16.94 37.9411 17.82 37.6211 18.66C37.3011 19.5 36.8211 20.2467 36.1811 20.9C35.5411 21.54 34.7411 22.0533 33.7811 22.44C32.8344 22.8133 31.7344 23 30.4811 23H25.2211V22.34ZM28.3411 20.64C28.3411 21.3333 28.3211 21.8533 28.2811 22.2C28.8144 22.2267 29.2811 22.24 29.6811 22.24C30.0944 22.24 30.3411 22.24 30.4211 22.24C31.5678 22.24 32.5678 21.9667 33.4211 21.42C34.2878 20.86 34.9544 20.1067 35.4211 19.16C35.9011 18.2 36.1411 17.1267 36.1411 15.94C36.1411 14.6733 35.9078 13.58 35.4411 12.66C34.9878 11.7267 34.2878 11.0067 33.3411 10.5C32.3944 9.98 31.1878 9.72 29.7211 9.72C29.2278 9.72 28.8811 9.82 28.6811 10.02C28.4944 10.22 28.3878 10.5 28.3611 10.86C28.3478 11.22 28.3411 11.64 28.3411 12.12V20.64ZM44.4281 9.66C43.9348 9.67333 43.5881 9.78667 43.3881 10C43.2015 10.2133 43.0948 10.5 43.0681 10.86C43.0548 11.22 43.0481 11.64 43.0481 12.12V20.62C43.0481 21.3267 43.0281 21.8533 42.9881 22.2C43.2281 22.1867 43.4681 22.1733 43.7081 22.16C43.9481 22.1467 44.1881 22.1333 44.4281 22.12V23H39.9281V22.34C40.4348 22.3133 40.7815 22.2 40.9681 22C41.1548 21.7867 41.2548 21.5 41.2681 21.14C41.2948 20.7667 41.3081 20.3467 41.3081 19.88V11.24C41.3081 10.68 41.3281 10.2 41.3681 9.8C41.1281 9.81333 40.8881 9.82667 40.6481 9.84C40.4081 9.85333 40.1681 9.86667 39.9281 9.88V9H44.4281V9.66ZM57.1073 13.22C57.094 12.4333 57.014 11.78 56.8673 11.26C56.7207 10.74 56.4607 10.3533 56.0873 10.1C55.7273 9.83333 55.2007 9.70667 54.5073 9.72H52.8073L52.7873 20.62C52.7873 21.3267 52.7673 21.8533 52.7273 22.2C53.0073 22.1867 53.2807 22.1733 53.5473 22.16C53.8273 22.1467 54.1073 22.1333 54.3873 22.12V23H49.6873V22.34C50.194 22.3133 50.534 22.1933 50.7073 21.98C50.894 21.7667 50.994 21.48 51.0073 21.12C51.034 20.7467 51.0473 20.3333 51.0473 19.88L51.0673 9.74L49.0073 9.76C48.1673 9.76 47.574 10.04 47.2273 10.6C46.8807 11.16 46.7073 12.0333 46.7073 13.22H45.9673L46.0873 9H57.7473L57.8673 13.22H57.1073Z" fill="black"/>
</svg>
