<svg width="325" height="220" viewBox="0 0 325 220" fill="none" xmlns="http://www.w3.org/2000/svg">
<rect x="1" y="1" width="323" height="218" fill="#C4C4C4" fill-opacity="0.06" stroke="black" stroke-width="2"/>
<path d="M230 2C230 176.4 230 220 230 220" stroke="black"/>
<path d="M276 2C276 178 276 220 276 220" stroke="black"/>
<path d="M46 0C46 176 46 220 46 220" stroke="black"/>
<path d="M92 0C92 176 92 220 92 220" stroke="black"/>
<path d="M138 0C138 176 138 220 138 220" stroke="black"/>
<path d="M184 0C184 176 184 219 184 219" stroke="black"/>
<path d="M1 45.5H323.5" stroke="black"/>
<path d="M1 89.5H323.5" stroke="black"/>
<path d="M1 133.5H323.5" stroke="black"/>
<path d="M1 177.5H323.5" stroke="black"/>
<path d="M7.41871 12V11.67C7.76538 11.6567 7.99538 11.55 8.10871 11.35C8.22871 11.15 8.28871 10.8767 8.28871 10.53L8.25871 5.81L7.05871 6.58L6.85871 6.29L8.80871 4.84H9.14871L9.15871 10.91C9.15871 11.0367 9.15538 11.16 9.14871 11.28C9.14871 11.4 9.14204 11.5067 9.12871 11.6C9.26871 11.5933 9.40871 11.5867 9.54871 11.58C9.68871 11.5733 9.82871 11.5667 9.96871 11.56V12H7.41871Z" fill="black"/>
<path d="M51.2745 12C51.2745 11.6467 51.3278 11.3333 51.4345 11.06C51.5478 10.7867 51.6978 10.5367 51.8845 10.31C52.0711 10.0767 52.2811 9.85333 52.5145 9.64C52.7545 9.42 52.9978 9.19 53.2445 8.95C53.6778 8.53667 53.9911 8.15333 54.1845 7.8C54.3778 7.44667 54.4745 7.10667 54.4745 6.78C54.4745 6.52667 54.4378 6.28333 54.3645 6.05C54.2978 5.81 54.1745 5.61333 53.9945 5.46C53.8145 5.30667 53.5645 5.23 53.2445 5.23C52.9711 5.23 52.7278 5.3 52.5145 5.44C52.3011 5.57333 52.1578 5.74 52.0845 5.94C52.1511 6.00667 52.1978 6.08 52.2245 6.16C52.2511 6.23333 52.2645 6.30667 52.2645 6.38C52.2645 6.46667 52.2278 6.57 52.1545 6.69C52.0811 6.80333 51.9545 6.85667 51.7745 6.85C51.6278 6.84333 51.5145 6.78667 51.4345 6.68C51.3545 6.57333 51.3145 6.44667 51.3145 6.3C51.3145 6.10667 51.3911 5.89667 51.5445 5.67C51.7045 5.44333 51.9378 5.25 52.2445 5.09C52.5578 4.92333 52.9445 4.84 53.4045 4.84C53.7578 4.84 54.0945 4.89667 54.4145 5.01C54.7345 5.12333 54.9945 5.31333 55.1945 5.58C55.4011 5.84 55.5045 6.19667 55.5045 6.65C55.5045 6.99 55.3545 7.38 55.0545 7.82C54.7611 8.25333 54.2578 8.76 53.5445 9.34C53.0911 9.71333 52.7178 10.0667 52.4245 10.4C52.1378 10.7267 51.9711 11.0067 51.9245 11.24L53.6945 11.29C54.0211 11.2967 54.3078 11.2967 54.5545 11.29C54.8078 11.2833 55.0045 11.2333 55.1445 11.14C55.2911 11.04 55.3645 10.86 55.3645 10.6H55.6645L55.6045 12H51.2745Z" fill="black"/>
<path d="M100.267 12.16C99.7868 12.16 99.3901 12.09 99.0768 11.95C98.7635 11.8033 98.5301 11.6233 98.3768 11.41C98.2301 11.1967 98.1568 10.9933 98.1568 10.8C98.1568 10.6467 98.1968 10.52 98.2768 10.42C98.3568 10.3133 98.4701 10.2567 98.6168 10.25C98.7968 10.2367 98.9201 10.2867 98.9868 10.4C99.0535 10.5067 99.0868 10.6067 99.0868 10.7C99.0868 10.7667 99.0768 10.8333 99.0568 10.9C99.0368 10.9667 99.0101 11.0333 98.9768 11.1C99.0435 11.3267 99.1935 11.49 99.4268 11.59C99.6668 11.69 99.9235 11.74 100.197 11.74C100.67 11.74 101.047 11.61 101.327 11.35C101.613 11.09 101.757 10.7133 101.757 10.22C101.757 9.92667 101.71 9.65 101.617 9.39C101.523 9.12333 101.35 8.90667 101.097 8.74C100.843 8.57333 100.473 8.49667 99.9868 8.51C99.9335 8.51 99.8768 8.51333 99.8168 8.52C99.7568 8.52 99.6901 8.52333 99.6168 8.53V8.08H100.027C100.38 8.08 100.657 8 100.857 7.84C101.057 7.68 101.2 7.49 101.287 7.27C101.373 7.05 101.417 6.84667 101.417 6.66C101.417 6.38667 101.38 6.14333 101.307 5.93C101.24 5.71 101.12 5.54 100.947 5.42C100.773 5.29333 100.533 5.23 100.227 5.23C99.9268 5.23 99.6701 5.31 99.4568 5.47C99.2435 5.62333 99.1101 5.78333 99.0568 5.95C99.1168 6.01667 99.1568 6.08333 99.1768 6.15C99.2035 6.21667 99.2168 6.28667 99.2168 6.36C99.2168 6.44 99.1835 6.53333 99.1168 6.64C99.0501 6.74667 98.9301 6.79667 98.7568 6.79C98.6168 6.79 98.5101 6.74 98.4368 6.64C98.3635 6.54 98.3268 6.42 98.3268 6.28C98.3268 6.09333 98.4001 5.89 98.5468 5.67C98.6935 5.44333 98.9168 5.25 99.2168 5.09C99.5235 4.92333 99.9068 4.84 100.367 4.84C100.727 4.84 101.06 4.89667 101.367 5.01C101.673 5.12333 101.92 5.31 102.107 5.57C102.293 5.82333 102.387 6.16 102.387 6.58C102.387 6.89333 102.267 7.20333 102.027 7.51C101.787 7.81 101.36 8.05667 100.747 8.25C101.38 8.31667 101.877 8.52 102.237 8.86C102.603 9.2 102.787 9.63 102.787 10.15C102.787 10.6033 102.667 10.98 102.427 11.28C102.193 11.5733 101.883 11.7933 101.497 11.94C101.117 12.0867 100.707 12.16 100.267 12.16Z" fill="black"/>
<path d="M146.86 10.91C146.86 11.0433 146.857 11.17 146.85 11.29C146.85 11.41 146.84 11.52 146.82 11.62C146.953 11.6133 147.083 11.61 147.21 11.61C147.337 11.6033 147.463 11.5967 147.59 11.59V12H145.08V11.67H145.15C145.49 11.6433 145.707 11.52 145.8 11.3C145.9 11.0733 145.95 10.7767 145.95 10.41V10.07H142.91V9.58L146.53 4.84H146.86V9.47L147.87 9.48V10.07H146.86V10.91ZM145.93 6.26L143.57 9.42L145.95 9.45V6.26H145.93Z" fill="black"/>
<path d="M191.315 12.16C190.889 12.16 190.525 12.09 190.225 11.95C189.925 11.8033 189.695 11.6233 189.535 11.41C189.375 11.1967 189.295 10.9933 189.295 10.8C189.295 10.6467 189.335 10.52 189.415 10.42C189.495 10.3133 189.609 10.2567 189.755 10.25C189.935 10.2367 190.059 10.2867 190.125 10.4C190.192 10.5067 190.225 10.6067 190.225 10.7C190.225 10.7667 190.215 10.8333 190.195 10.9C190.175 10.9667 190.149 11.03 190.115 11.09C190.142 11.25 190.225 11.3833 190.365 11.49C190.505 11.59 190.665 11.6633 190.845 11.71C191.032 11.7567 191.202 11.7767 191.355 11.77C191.682 11.7567 191.945 11.67 192.145 11.51C192.345 11.3433 192.492 11.1333 192.585 10.88C192.685 10.6267 192.735 10.36 192.735 10.08C192.735 9.89333 192.719 9.68667 192.685 9.46C192.659 9.23333 192.592 9.02 192.485 8.82C192.385 8.61333 192.232 8.44333 192.025 8.31C191.819 8.17667 191.539 8.11 191.185 8.11C191.072 8.11 190.932 8.12333 190.765 8.15C190.605 8.17667 190.442 8.21667 190.275 8.27C190.115 8.32333 189.979 8.38667 189.865 8.46L189.585 8.2L189.565 5H192.155C192.535 5 192.795 4.95 192.935 4.85C193.082 4.74333 193.155 4.57667 193.155 4.35H193.425L193.365 5.67L190.025 5.74V7.94C190.185 7.87333 190.392 7.81 190.645 7.75C190.905 7.69 191.182 7.66 191.475 7.66C191.889 7.66 192.239 7.72667 192.525 7.86C192.819 7.98667 193.055 8.16 193.235 8.38C193.422 8.59333 193.559 8.83333 193.645 9.1C193.732 9.36 193.775 9.62667 193.775 9.9C193.775 10.3933 193.659 10.81 193.425 11.15C193.199 11.4833 192.899 11.7367 192.525 11.91C192.152 12.0767 191.749 12.16 191.315 12.16Z" fill="black"/>
<path d="M236.559 12.16C235.966 12.16 235.493 12.02 235.139 11.74C234.793 11.46 234.543 11.0633 234.389 10.55C234.243 10.03 234.169 9.41667 234.169 8.71C234.169 8.47 234.189 8.18667 234.229 7.86C234.276 7.52667 234.356 7.18667 234.469 6.84C234.583 6.48667 234.739 6.16 234.939 5.86C235.146 5.55333 235.409 5.30667 235.729 5.12C236.049 4.93333 236.436 4.84 236.889 4.84C237.289 4.84 237.619 4.91333 237.879 5.06C238.139 5.2 238.333 5.37 238.459 5.57C238.593 5.76333 238.659 5.94333 238.659 6.11C238.659 6.25 238.623 6.37 238.549 6.47C238.483 6.56333 238.376 6.61667 238.229 6.63C238.063 6.63667 237.946 6.59 237.879 6.49C237.813 6.39 237.779 6.29667 237.779 6.21C237.779 6.07 237.819 5.93 237.899 5.79C237.866 5.67 237.759 5.54333 237.579 5.41C237.406 5.27667 237.183 5.21 236.909 5.21C236.603 5.21 236.343 5.29 236.129 5.45C235.923 5.61 235.753 5.82 235.619 6.08C235.493 6.34 235.393 6.62 235.319 6.92C235.246 7.21333 235.193 7.49667 235.159 7.77C235.133 8.04333 235.116 8.27667 235.109 8.47C235.276 8.25 235.499 8.05667 235.779 7.89C236.066 7.71667 236.403 7.63 236.789 7.63C237.189 7.63 237.523 7.7 237.789 7.84C238.063 7.97333 238.279 8.15 238.439 8.37C238.606 8.59 238.723 8.83333 238.789 9.1C238.863 9.36 238.899 9.61667 238.899 9.87C238.899 10.2833 238.796 10.6667 238.589 11.02C238.389 11.3667 238.113 11.6433 237.759 11.85C237.406 12.0567 237.006 12.16 236.559 12.16ZM236.579 11.77C236.893 11.77 237.146 11.6933 237.339 11.54C237.533 11.38 237.673 11.1733 237.759 10.92C237.846 10.66 237.889 10.3833 237.889 10.09C237.889 9.90333 237.873 9.69667 237.839 9.47C237.806 9.23667 237.743 9.01667 237.649 8.81C237.563 8.59667 237.433 8.42333 237.259 8.29C237.086 8.15 236.859 8.08 236.579 8.08C236.373 8.08 236.169 8.13333 235.969 8.24C235.769 8.34 235.593 8.47333 235.439 8.64C235.293 8.80667 235.186 8.98667 235.119 9.18C235.139 9.5 235.176 9.81333 235.229 10.12C235.289 10.4267 235.373 10.7033 235.479 10.95C235.593 11.1967 235.739 11.3967 235.919 11.55C236.099 11.6967 236.319 11.77 236.579 11.77Z" fill="black"/>
<path d="M283.145 12.16C283.019 12.1467 282.929 12.1 282.875 12.02C282.822 11.94 282.795 11.84 282.795 11.72C282.795 11.5733 282.832 11.3833 282.905 11.15C282.985 10.9167 283.079 10.67 283.185 10.41C283.292 10.1433 283.389 9.9 283.475 9.68C283.602 9.36667 283.752 8.98667 283.925 8.54C284.099 8.09333 284.289 7.62333 284.495 7.13C284.709 6.63 284.925 6.15 285.145 5.69L282.505 5.7C282.239 5.70667 282.029 5.77 281.875 5.89C281.729 6.01 281.655 6.20667 281.655 6.48H281.415V5H285.605V5.68C285.365 6.18 285.155 6.65667 284.975 7.11C284.802 7.56333 284.645 8.02 284.505 8.48C284.365 8.93333 284.232 9.41 284.105 9.91C283.979 10.41 283.842 10.9567 283.695 11.55C283.655 11.71 283.592 11.8533 283.505 11.98C283.425 12.1067 283.305 12.1667 283.145 12.16Z" fill="black"/>
<path d="M8.45238 56.16C8.21905 56.16 7.97572 56.13 7.72238 56.07C7.46905 56.0167 7.23238 55.9267 7.01238 55.8C6.79905 55.6733 6.62238 55.5033 6.48238 55.29C6.34905 55.0767 6.28238 54.8133 6.28238 54.5C6.28238 54.2 6.35572 53.9267 6.50238 53.68C6.64905 53.4267 6.83572 53.2 7.06238 53C7.29572 52.7933 7.54238 52.61 7.80238 52.45C7.29572 52.1433 6.93905 51.84 6.73238 51.54C6.52572 51.2333 6.42238 50.9367 6.42238 50.65C6.42238 50.23 6.52905 49.8867 6.74238 49.62C6.95572 49.3533 7.22572 49.1567 7.55238 49.03C7.87905 48.9033 8.20905 48.84 8.54238 48.84C8.88238 48.84 9.19905 48.9033 9.49238 49.03C9.79238 49.15 10.0324 49.33 10.2124 49.57C10.399 49.81 10.4924 50.1033 10.4924 50.45C10.4924 50.8433 10.359 51.1867 10.0924 51.48C9.83238 51.7733 9.51572 52.0133 9.14238 52.2C9.44238 52.3733 9.71905 52.5733 9.97238 52.8C10.2257 53.02 10.429 53.26 10.5824 53.52C10.7357 53.78 10.8124 54.0533 10.8124 54.34C10.8124 54.76 10.7024 55.1067 10.4824 55.38C10.2624 55.6467 9.97238 55.8433 9.61238 55.97C9.25238 56.0967 8.86572 56.16 8.45238 56.16ZM8.79238 52C9.08572 51.8 9.30905 51.5733 9.46238 51.32C9.62238 51.0667 9.70572 50.8167 9.71238 50.57C9.72572 50.1367 9.62572 49.8067 9.41238 49.58C9.19905 49.3533 8.91572 49.2367 8.56238 49.23C8.30238 49.2233 8.08238 49.28 7.90238 49.4C7.72238 49.5133 7.58572 49.6633 7.49238 49.85C7.39905 50.03 7.35238 50.2233 7.35238 50.43C7.35238 50.7967 7.48905 51.1167 7.76238 51.39C8.04238 51.6567 8.38572 51.86 8.79238 52ZM8.47238 55.76C8.90572 55.7667 9.23905 55.66 9.47238 55.44C9.71238 55.22 9.83238 54.9167 9.83238 54.53C9.83238 54.1833 9.70905 53.8467 9.46238 53.52C9.22238 53.1867 8.79572 52.89 8.18238 52.63C7.81572 52.8967 7.54905 53.1833 7.38238 53.49C7.22238 53.7967 7.13572 54.0733 7.12238 54.32C7.09572 54.7467 7.20572 55.0933 7.45238 55.36C7.70572 55.62 8.04572 55.7533 8.47238 55.76Z" fill="black"/>
<path d="M53.1794 56.16C52.746 56.16 52.3927 56.0967 52.1194 55.97C51.8527 55.8367 51.6594 55.6733 51.5394 55.48C51.4194 55.2867 51.3594 55.1033 51.3594 54.93C51.3594 54.7833 51.396 54.66 51.4694 54.56C51.5427 54.46 51.6527 54.4067 51.7994 54.4C51.9594 54.3933 52.0727 54.4433 52.1394 54.55C52.2127 54.65 52.2494 54.7433 52.2494 54.83C52.2494 54.97 52.2027 55.1067 52.1094 55.24C52.156 55.3867 52.256 55.5133 52.4094 55.62C52.5694 55.7267 52.8094 55.78 53.1294 55.78C53.436 55.78 53.6927 55.7067 53.8994 55.56C54.106 55.4133 54.2727 55.22 54.3994 54.98C54.526 54.7333 54.6227 54.4667 54.6894 54.18C54.756 53.8867 54.7994 53.5967 54.8194 53.31C54.846 53.0233 54.8594 52.7667 54.8594 52.54C54.6927 52.7667 54.4694 52.9633 54.1894 53.13C53.9094 53.2967 53.5727 53.38 53.1794 53.38C52.7794 53.38 52.4427 53.3133 52.1694 53.18C51.9027 53.04 51.6894 52.86 51.5294 52.64C51.376 52.42 51.2627 52.18 51.1894 51.92C51.1227 51.66 51.0894 51.4033 51.0894 51.15C51.0894 50.7167 51.186 50.3267 51.3794 49.98C51.5727 49.6267 51.846 49.35 52.1994 49.15C52.5527 48.9433 52.9694 48.84 53.4494 48.84C53.9227 48.84 54.3094 48.93 54.6094 49.11C54.916 49.29 55.156 49.5433 55.3294 49.87C55.5027 50.19 55.6227 50.5667 55.6894 51C55.7627 51.4333 55.7994 51.9033 55.7994 52.41C55.7994 52.7033 55.7794 53.02 55.7394 53.36C55.706 53.6933 55.636 54.0267 55.5294 54.36C55.4294 54.6867 55.2827 54.9867 55.0894 55.26C54.896 55.5267 54.6427 55.7433 54.3294 55.91C54.016 56.0767 53.6327 56.16 53.1794 56.16ZM53.3894 52.93C53.6027 52.93 53.806 52.88 53.9994 52.78C54.1994 52.6733 54.376 52.5367 54.5294 52.37C54.6827 52.2033 54.7894 52.0233 54.8494 51.83C54.8294 51.5167 54.7927 51.2067 54.7394 50.9C54.686 50.5933 54.6027 50.3133 54.4894 50.06C54.3827 49.8067 54.2394 49.6033 54.0594 49.45C53.8794 49.2967 53.6527 49.22 53.3794 49.22C53.0927 49.22 52.8527 49.3033 52.6594 49.47C52.466 49.63 52.3194 49.84 52.2194 50.1C52.126 50.36 52.0794 50.6367 52.0794 50.93C52.0794 51.1167 52.096 51.3267 52.1294 51.56C52.1627 51.7867 52.2227 52.0067 52.3094 52.22C52.4027 52.4267 52.536 52.5967 52.7094 52.73C52.8827 52.8633 53.1094 52.93 53.3894 52.93Z" fill="black"/>
<path d="M96.3132 56V55.67C96.6599 55.6567 96.8899 55.55 97.0032 55.35C97.1232 55.15 97.1832 54.8767 97.1832 54.53L97.1532 49.81L95.9532 50.58L95.7532 50.29L97.7032 48.84H98.0432L98.0532 54.91C98.0532 55.0367 98.0499 55.16 98.0432 55.28C98.0432 55.4 98.0366 55.5067 98.0232 55.6C98.1632 55.5933 98.3032 55.5867 98.4432 55.58C98.5832 55.5733 98.7232 55.5667 98.8632 55.56V56H96.3132ZM102.326 56.16C101.819 56.16 101.399 56.0533 101.066 55.84C100.732 55.62 100.472 55.3333 100.286 54.98C100.099 54.62 99.9658 54.2267 99.8858 53.8C99.8125 53.3733 99.7758 52.95 99.7758 52.53C99.7758 52.11 99.8225 51.6833 99.9158 51.25C100.016 50.8167 100.169 50.42 100.376 50.06C100.582 49.6933 100.849 49.4 101.176 49.18C101.502 48.9533 101.899 48.84 102.366 48.84C102.852 48.84 103.256 48.95 103.576 49.17C103.902 49.39 104.159 49.68 104.346 50.04C104.539 50.3933 104.676 50.7833 104.756 51.21C104.836 51.6367 104.876 52.06 104.876 52.48C104.876 52.8933 104.829 53.3167 104.736 53.75C104.642 54.1833 104.496 54.5833 104.296 54.95C104.096 55.31 103.832 55.6033 103.506 55.83C103.186 56.05 102.792 56.16 102.326 56.16ZM102.386 55.77C102.672 55.77 102.909 55.68 103.096 55.5C103.282 55.32 103.429 55.08 103.536 54.78C103.649 54.48 103.729 54.15 103.776 53.79C103.822 53.4233 103.846 53.0567 103.846 52.69C103.846 52.2833 103.822 51.8767 103.776 51.47C103.729 51.0633 103.649 50.69 103.536 50.35C103.422 50.01 103.269 49.7367 103.076 49.53C102.882 49.3233 102.639 49.22 102.346 49.22C102.059 49.22 101.816 49.31 101.616 49.49C101.422 49.67 101.266 49.91 101.146 50.21C101.026 50.51 100.939 50.8433 100.886 51.21C100.832 51.5767 100.806 51.9467 100.806 52.32C100.806 52.6 100.819 52.8967 100.846 53.21C100.872 53.5233 100.919 53.8333 100.986 54.14C101.059 54.44 101.156 54.7133 101.276 54.96C101.396 55.2067 101.546 55.4033 101.726 55.55C101.906 55.6967 102.126 55.77 102.386 55.77Z" fill="black"/>
<path d="M142.597 56V55.67C142.944 55.6567 143.174 55.55 143.287 55.35C143.407 55.15 143.467 54.8767 143.467 54.53L143.437 49.81L142.237 50.58L142.037 50.29L143.987 48.84H144.327L144.337 54.91C144.337 55.0367 144.334 55.16 144.327 55.28C144.327 55.4 144.321 55.5067 144.307 55.6C144.447 55.5933 144.587 55.5867 144.727 55.58C144.867 55.5733 145.007 55.5667 145.147 55.56V56H142.597ZM146.24 56V55.67C146.587 55.6567 146.817 55.55 146.93 55.35C147.05 55.15 147.11 54.8767 147.11 54.53L147.08 49.81L145.88 50.58L145.68 50.29L147.63 48.84H147.97L147.98 54.91C147.98 55.0367 147.977 55.16 147.97 55.28C147.97 55.4 147.963 55.5067 147.95 55.6C148.09 55.5933 148.23 55.5867 148.37 55.58C148.51 55.5733 148.65 55.5667 148.79 55.56V56H146.24Z" fill="black"/>
<path d="M187.733 56V55.67C188.08 55.6567 188.31 55.55 188.423 55.35C188.543 55.15 188.603 54.8767 188.603 54.53L188.573 49.81L187.373 50.58L187.173 50.29L189.123 48.84H189.463L189.473 54.91C189.473 55.0367 189.47 55.16 189.463 55.28C189.463 55.4 189.456 55.5067 189.443 55.6C189.583 55.5933 189.723 55.5867 189.863 55.58C190.003 55.5733 190.143 55.5667 190.283 55.56V56H187.733ZM191.096 56C191.096 55.6467 191.149 55.3333 191.256 55.06C191.369 54.7867 191.519 54.5367 191.706 54.31C191.892 54.0767 192.102 53.8533 192.336 53.64C192.576 53.42 192.819 53.19 193.066 52.95C193.499 52.5367 193.812 52.1533 194.006 51.8C194.199 51.4467 194.296 51.1067 194.296 50.78C194.296 50.5267 194.259 50.2833 194.186 50.05C194.119 49.81 193.996 49.6133 193.816 49.46C193.636 49.3067 193.386 49.23 193.066 49.23C192.792 49.23 192.549 49.3 192.336 49.44C192.122 49.5733 191.979 49.74 191.906 49.94C191.972 50.0067 192.019 50.08 192.046 50.16C192.072 50.2333 192.086 50.3067 192.086 50.38C192.086 50.4667 192.049 50.57 191.976 50.69C191.902 50.8033 191.776 50.8567 191.596 50.85C191.449 50.8433 191.336 50.7867 191.256 50.68C191.176 50.5733 191.136 50.4467 191.136 50.3C191.136 50.1067 191.212 49.8967 191.366 49.67C191.526 49.4433 191.759 49.25 192.066 49.09C192.379 48.9233 192.766 48.84 193.226 48.84C193.579 48.84 193.916 48.8967 194.236 49.01C194.556 49.1233 194.816 49.3133 195.016 49.58C195.222 49.84 195.326 50.1967 195.326 50.65C195.326 50.99 195.176 51.38 194.876 51.82C194.582 52.2533 194.079 52.76 193.366 53.34C192.912 53.7133 192.539 54.0667 192.246 54.4C191.959 54.7267 191.792 55.0067 191.746 55.24L193.516 55.29C193.842 55.2967 194.129 55.2967 194.376 55.29C194.629 55.2833 194.826 55.2333 194.966 55.14C195.112 55.04 195.186 54.86 195.186 54.6H195.486L195.426 56H191.096Z" fill="black"/>
<path d="M232.636 56V55.67C232.982 55.6567 233.212 55.55 233.326 55.35C233.446 55.15 233.506 54.8767 233.506 54.53L233.476 49.81L232.276 50.58L232.076 50.29L234.026 48.84H234.366L234.376 54.91C234.376 55.0367 234.372 55.16 234.366 55.28C234.366 55.4 234.359 55.5067 234.346 55.6C234.486 55.5933 234.626 55.5867 234.766 55.58C234.906 55.5733 235.046 55.5667 235.186 55.56V56H232.636ZM238.088 56.16C237.608 56.16 237.211 56.09 236.898 55.95C236.585 55.8033 236.351 55.6233 236.198 55.41C236.051 55.1967 235.978 54.9933 235.978 54.8C235.978 54.6467 236.018 54.52 236.098 54.42C236.178 54.3133 236.291 54.2567 236.438 54.25C236.618 54.2367 236.741 54.2867 236.808 54.4C236.875 54.5067 236.908 54.6067 236.908 54.7C236.908 54.7667 236.898 54.8333 236.878 54.9C236.858 54.9667 236.831 55.0333 236.798 55.1C236.865 55.3267 237.015 55.49 237.248 55.59C237.488 55.69 237.745 55.74 238.018 55.74C238.491 55.74 238.868 55.61 239.148 55.35C239.435 55.09 239.578 54.7133 239.578 54.22C239.578 53.9267 239.531 53.65 239.438 53.39C239.345 53.1233 239.171 52.9067 238.918 52.74C238.665 52.5733 238.295 52.4967 237.808 52.51C237.755 52.51 237.698 52.5133 237.638 52.52C237.578 52.52 237.511 52.5233 237.438 52.53V52.08H237.848C238.201 52.08 238.478 52 238.678 51.84C238.878 51.68 239.021 51.49 239.108 51.27C239.195 51.05 239.238 50.8467 239.238 50.66C239.238 50.3867 239.201 50.1433 239.128 49.93C239.061 49.71 238.941 49.54 238.768 49.42C238.595 49.2933 238.355 49.23 238.048 49.23C237.748 49.23 237.491 49.31 237.278 49.47C237.065 49.6233 236.931 49.7833 236.878 49.95C236.938 50.0167 236.978 50.0833 236.998 50.15C237.025 50.2167 237.038 50.2867 237.038 50.36C237.038 50.44 237.005 50.5333 236.938 50.64C236.871 50.7467 236.751 50.7967 236.578 50.79C236.438 50.79 236.331 50.74 236.258 50.64C236.185 50.54 236.148 50.42 236.148 50.28C236.148 50.0933 236.221 49.89 236.368 49.67C236.515 49.4433 236.738 49.25 237.038 49.09C237.345 48.9233 237.728 48.84 238.188 48.84C238.548 48.84 238.881 48.8967 239.188 49.01C239.495 49.1233 239.741 49.31 239.928 49.57C240.115 49.8233 240.208 50.16 240.208 50.58C240.208 50.8933 240.088 51.2033 239.848 51.51C239.608 51.81 239.181 52.0567 238.568 52.25C239.201 52.3167 239.698 52.52 240.058 52.86C240.425 53.2 240.608 53.63 240.608 54.15C240.608 54.6033 240.488 54.98 240.248 55.28C240.015 55.5733 239.705 55.7933 239.318 55.94C238.938 56.0867 238.528 56.16 238.088 56.16Z" fill="black"/>
<path d="M279.709 56V55.67C280.055 55.6567 280.285 55.55 280.399 55.35C280.519 55.15 280.579 54.8767 280.579 54.53L280.549 49.81L279.349 50.58L279.149 50.29L281.099 48.84H281.439L281.449 54.91C281.449 55.0367 281.445 55.16 281.439 55.28C281.439 55.4 281.432 55.5067 281.419 55.6C281.559 55.5933 281.699 55.5867 281.839 55.58C281.979 55.5733 282.119 55.5667 282.259 55.56V56H279.709ZM286.681 54.91C286.681 55.0433 286.678 55.17 286.671 55.29C286.671 55.41 286.661 55.52 286.641 55.62C286.775 55.6133 286.905 55.61 287.031 55.61C287.158 55.6033 287.285 55.5967 287.411 55.59V56H284.901V55.67H284.971C285.311 55.6433 285.528 55.52 285.621 55.3C285.721 55.0733 285.771 54.7767 285.771 54.41V54.07H282.731V53.58L286.351 48.84H286.681V53.47L287.691 53.48V54.07H286.681V54.91ZM285.751 50.26L283.391 53.42L285.771 53.45V50.26H285.751Z" fill="black"/>
<path d="M4.6941 100V99.67C5.04077 99.6567 5.27077 99.55 5.3841 99.35C5.5041 99.15 5.5641 98.8767 5.5641 98.53L5.5341 93.81L4.3341 94.58L4.1341 94.29L6.0841 92.84H6.4241L6.4341 98.91C6.4341 99.0367 6.43077 99.16 6.4241 99.28C6.4241 99.4 6.41743 99.5067 6.4041 99.6C6.5441 99.5933 6.6841 99.5867 6.8241 99.58C6.9641 99.5733 7.1041 99.5667 7.2441 99.56V100H4.6941ZM10.1367 100.16C9.71001 100.16 9.34668 100.09 9.04668 99.95C8.74668 99.8033 8.51668 99.6233 8.35668 99.41C8.19668 99.1967 8.11668 98.9933 8.11668 98.8C8.11668 98.6467 8.15668 98.52 8.23668 98.42C8.31668 98.3133 8.43001 98.2567 8.57668 98.25C8.75668 98.2367 8.88001 98.2867 8.94668 98.4C9.01335 98.5067 9.04668 98.6067 9.04668 98.7C9.04668 98.7667 9.03668 98.8333 9.01668 98.9C8.99668 98.9667 8.97001 99.03 8.93668 99.09C8.96335 99.25 9.04668 99.3833 9.18668 99.49C9.32668 99.59 9.48668 99.6633 9.66668 99.71C9.85335 99.7567 10.0233 99.7767 10.1767 99.77C10.5033 99.7567 10.7667 99.67 10.9667 99.51C11.1667 99.3433 11.3133 99.1333 11.4067 98.88C11.5067 98.6267 11.5567 98.36 11.5567 98.08C11.5567 97.8933 11.54 97.6867 11.5067 97.46C11.48 97.2333 11.4133 97.02 11.3067 96.82C11.2067 96.6133 11.0533 96.4433 10.8467 96.31C10.64 96.1767 10.36 96.11 10.0067 96.11C9.89335 96.11 9.75335 96.1233 9.58668 96.15C9.42668 96.1767 9.26335 96.2167 9.09668 96.27C8.93668 96.3233 8.80001 96.3867 8.68668 96.46L8.40668 96.2L8.38668 93H10.9767C11.3567 93 11.6167 92.95 11.7567 92.85C11.9033 92.7433 11.9767 92.5767 11.9767 92.35H12.2467L12.1867 93.67L8.84668 93.74V95.94C9.00668 95.8733 9.21335 95.81 9.46668 95.75C9.72668 95.69 10.0033 95.66 10.2967 95.66C10.71 95.66 11.06 95.7267 11.3467 95.86C11.64 95.9867 11.8767 96.16 12.0567 96.38C12.2433 96.5933 12.38 96.8333 12.4667 97.1C12.5533 97.36 12.5967 97.6267 12.5967 97.9C12.5967 98.3933 12.48 98.81 12.2467 99.15C12.02 99.4833 11.72 99.7367 11.3467 99.91C10.9733 100.077 10.57 100.16 10.1367 100.16Z" fill="black"/>
<path d="M49.5281 100V99.67C49.8748 99.6567 50.1048 99.55 50.2181 99.35C50.3381 99.15 50.3981 98.8767 50.3981 98.53L50.3681 93.81L49.1681 94.58L48.9681 94.29L50.9181 92.84H51.2581L51.2681 98.91C51.2681 99.0367 51.2648 99.16 51.2581 99.28C51.2581 99.4 51.2514 99.5067 51.2381 99.6C51.3781 99.5933 51.5181 99.5867 51.6581 99.58C51.7981 99.5733 51.9381 99.5667 52.0781 99.56V100H49.5281ZM55.3807 100.16C54.7873 100.16 54.314 100.02 53.9607 99.74C53.614 99.46 53.364 99.0633 53.2107 98.55C53.064 98.03 52.9907 97.4167 52.9907 96.71C52.9907 96.47 53.0107 96.1867 53.0507 95.86C53.0973 95.5267 53.1773 95.1867 53.2907 94.84C53.404 94.4867 53.5607 94.16 53.7607 93.86C53.9673 93.5533 54.2307 93.3067 54.5507 93.12C54.8707 92.9333 55.2573 92.84 55.7107 92.84C56.1107 92.84 56.4407 92.9133 56.7007 93.06C56.9607 93.2 57.154 93.37 57.2807 93.57C57.414 93.7633 57.4807 93.9433 57.4807 94.11C57.4807 94.25 57.444 94.37 57.3707 94.47C57.304 94.5633 57.1973 94.6167 57.0507 94.63C56.884 94.6367 56.7673 94.59 56.7007 94.49C56.634 94.39 56.6007 94.2967 56.6007 94.21C56.6007 94.07 56.6407 93.93 56.7207 93.79C56.6873 93.67 56.5807 93.5433 56.4007 93.41C56.2273 93.2767 56.004 93.21 55.7307 93.21C55.424 93.21 55.164 93.29 54.9507 93.45C54.744 93.61 54.574 93.82 54.4407 94.08C54.314 94.34 54.214 94.62 54.1407 94.92C54.0673 95.2133 54.014 95.4967 53.9807 95.77C53.954 96.0433 53.9373 96.2767 53.9307 96.47C54.0973 96.25 54.3207 96.0567 54.6007 95.89C54.8873 95.7167 55.224 95.63 55.6107 95.63C56.0107 95.63 56.344 95.7 56.6107 95.84C56.884 95.9733 57.1007 96.15 57.2607 96.37C57.4273 96.59 57.544 96.8333 57.6107 97.1C57.684 97.36 57.7207 97.6167 57.7207 97.87C57.7207 98.2833 57.6173 98.6667 57.4107 99.02C57.2107 99.3667 56.934 99.6433 56.5807 99.85C56.2273 100.057 55.8273 100.16 55.3807 100.16ZM55.4007 99.77C55.714 99.77 55.9673 99.6933 56.1607 99.54C56.354 99.38 56.494 99.1733 56.5807 98.92C56.6673 98.66 56.7107 98.3833 56.7107 98.09C56.7107 97.9033 56.694 97.6967 56.6607 97.47C56.6273 97.2367 56.564 97.0167 56.4707 96.81C56.384 96.5967 56.254 96.4233 56.0807 96.29C55.9073 96.15 55.6807 96.08 55.4007 96.08C55.194 96.08 54.9907 96.1333 54.7907 96.24C54.5907 96.34 54.414 96.4733 54.2607 96.64C54.114 96.8067 54.0073 96.9867 53.9407 97.18C53.9607 97.5 53.9973 97.8133 54.0507 98.12C54.1107 98.4267 54.194 98.7033 54.3007 98.95C54.414 99.1967 54.5607 99.3967 54.7407 99.55C54.9207 99.6967 55.1407 99.77 55.4007 99.77Z" fill="black"/>
<path d="M97.114 100V99.67C97.4607 99.6567 97.6907 99.55 97.804 99.35C97.924 99.15 97.984 98.8767 97.984 98.53L97.954 93.81L96.754 94.58L96.554 94.29L98.504 92.84H98.844L98.854 98.91C98.854 99.0367 98.8507 99.16 98.844 99.28C98.844 99.4 98.8374 99.5067 98.824 99.6C98.964 99.5933 99.104 99.5867 99.244 99.58C99.384 99.5733 99.524 99.5667 99.664 99.56V100H97.114ZM101.967 100.16C101.84 100.147 101.75 100.1 101.697 100.02C101.643 99.94 101.617 99.84 101.617 99.72C101.617 99.5733 101.653 99.3833 101.727 99.15C101.807 98.9167 101.9 98.67 102.007 98.41C102.113 98.1433 102.21 97.9 102.297 97.68C102.423 97.3667 102.573 96.9867 102.747 96.54C102.92 96.0933 103.11 95.6233 103.317 95.13C103.53 94.63 103.747 94.15 103.967 93.69L101.327 93.7C101.06 93.7067 100.85 93.77 100.697 93.89C100.55 94.01 100.477 94.2067 100.477 94.48H100.237V93H104.427V93.68C104.187 94.18 103.977 94.6567 103.797 95.11C103.623 95.5633 103.467 96.02 103.327 96.48C103.187 96.9333 103.053 97.41 102.927 97.91C102.8 98.41 102.663 98.9567 102.517 99.55C102.477 99.71 102.413 99.8533 102.327 99.98C102.247 100.107 102.127 100.167 101.967 100.16Z" fill="black"/>
<path d="M141.611 100V99.67C141.958 99.6567 142.188 99.55 142.301 99.35C142.421 99.15 142.481 98.8767 142.481 98.53L142.451 93.81L141.251 94.58L141.051 94.29L143.001 92.84H143.341L143.351 98.91C143.351 99.0367 143.348 99.16 143.341 99.28C143.341 99.4 143.334 99.5067 143.321 99.6C143.461 99.5933 143.601 99.5867 143.741 99.58C143.881 99.5733 144.021 99.5667 144.161 99.56V100H141.611ZM147.274 100.16C147.04 100.16 146.797 100.13 146.544 100.07C146.29 100.017 146.054 99.9267 145.834 99.8C145.62 99.6733 145.444 99.5033 145.304 99.29C145.17 99.0767 145.104 98.8133 145.104 98.5C145.104 98.2 145.177 97.9267 145.324 97.68C145.47 97.4267 145.657 97.2 145.884 97C146.117 96.7933 146.364 96.61 146.624 96.45C146.117 96.1433 145.76 95.84 145.554 95.54C145.347 95.2333 145.244 94.9367 145.244 94.65C145.244 94.23 145.35 93.8867 145.564 93.62C145.777 93.3533 146.047 93.1567 146.374 93.03C146.7 92.9033 147.03 92.84 147.364 92.84C147.704 92.84 148.02 92.9033 148.314 93.03C148.614 93.15 148.854 93.33 149.034 93.57C149.22 93.81 149.314 94.1033 149.314 94.45C149.314 94.8433 149.18 95.1867 148.914 95.48C148.654 95.7733 148.337 96.0133 147.964 96.2C148.264 96.3733 148.54 96.5733 148.794 96.8C149.047 97.02 149.25 97.26 149.404 97.52C149.557 97.78 149.634 98.0533 149.634 98.34C149.634 98.76 149.524 99.1067 149.304 99.38C149.084 99.6467 148.794 99.8433 148.434 99.97C148.074 100.097 147.687 100.16 147.274 100.16ZM147.614 96C147.907 95.8 148.13 95.5733 148.284 95.32C148.444 95.0667 148.527 94.8167 148.534 94.57C148.547 94.1367 148.447 93.8067 148.234 93.58C148.02 93.3533 147.737 93.2367 147.384 93.23C147.124 93.2233 146.904 93.28 146.724 93.4C146.544 93.5133 146.407 93.6633 146.314 93.85C146.22 94.03 146.174 94.2233 146.174 94.43C146.174 94.7967 146.31 95.1167 146.584 95.39C146.864 95.6567 147.207 95.86 147.614 96ZM147.294 99.76C147.727 99.7667 148.06 99.66 148.294 99.44C148.534 99.22 148.654 98.9167 148.654 98.53C148.654 98.1833 148.53 97.8467 148.284 97.52C148.044 97.1867 147.617 96.89 147.004 96.63C146.637 96.8967 146.37 97.1833 146.204 97.49C146.044 97.7967 145.957 98.0733 145.944 98.32C145.917 98.7467 146.027 99.0933 146.274 99.36C146.527 99.62 146.867 99.7533 147.294 99.76Z" fill="black"/>
<path d="M187.528 100V99.67C187.875 99.6567 188.105 99.55 188.218 99.35C188.338 99.15 188.398 98.8767 188.398 98.53L188.368 93.81L187.168 94.58L186.968 94.29L188.918 92.84H189.258L189.268 98.91C189.268 99.0367 189.265 99.16 189.258 99.28C189.258 99.4 189.251 99.5067 189.238 99.6C189.378 99.5933 189.518 99.5867 189.658 99.58C189.798 99.5733 189.938 99.5667 190.078 99.56V100H187.528ZM193.001 100.16C192.567 100.16 192.214 100.097 191.941 99.97C191.674 99.8367 191.481 99.6733 191.361 99.48C191.241 99.2867 191.181 99.1033 191.181 98.93C191.181 98.7833 191.217 98.66 191.291 98.56C191.364 98.46 191.474 98.4067 191.621 98.4C191.781 98.3933 191.894 98.4433 191.961 98.55C192.034 98.65 192.071 98.7433 192.071 98.83C192.071 98.97 192.024 99.1067 191.931 99.24C191.977 99.3867 192.077 99.5133 192.231 99.62C192.391 99.7267 192.631 99.78 192.951 99.78C193.257 99.78 193.514 99.7067 193.721 99.56C193.927 99.4133 194.094 99.22 194.221 98.98C194.347 98.7333 194.444 98.4667 194.511 98.18C194.577 97.8867 194.621 97.5967 194.641 97.31C194.667 97.0233 194.681 96.7667 194.681 96.54C194.514 96.7667 194.291 96.9633 194.011 97.13C193.731 97.2967 193.394 97.38 193.001 97.38C192.601 97.38 192.264 97.3133 191.991 97.18C191.724 97.04 191.511 96.86 191.351 96.64C191.197 96.42 191.084 96.18 191.011 95.92C190.944 95.66 190.911 95.4033 190.911 95.15C190.911 94.7167 191.007 94.3267 191.201 93.98C191.394 93.6267 191.667 93.35 192.021 93.15C192.374 92.9433 192.791 92.84 193.271 92.84C193.744 92.84 194.131 92.93 194.431 93.11C194.737 93.29 194.977 93.5433 195.151 93.87C195.324 94.19 195.444 94.5667 195.511 95C195.584 95.4333 195.621 95.9033 195.621 96.41C195.621 96.7033 195.601 97.02 195.561 97.36C195.527 97.6933 195.457 98.0267 195.351 98.36C195.251 98.6867 195.104 98.9867 194.911 99.26C194.717 99.5267 194.464 99.7433 194.151 99.91C193.837 100.077 193.454 100.16 193.001 100.16ZM193.211 96.93C193.424 96.93 193.627 96.88 193.821 96.78C194.021 96.6733 194.197 96.5367 194.351 96.37C194.504 96.2033 194.611 96.0233 194.671 95.83C194.651 95.5167 194.614 95.2067 194.561 94.9C194.507 94.5933 194.424 94.3133 194.311 94.06C194.204 93.8067 194.061 93.6033 193.881 93.45C193.701 93.2967 193.474 93.22 193.201 93.22C192.914 93.22 192.674 93.3033 192.481 93.47C192.287 93.63 192.141 93.84 192.041 94.1C191.947 94.36 191.901 94.6367 191.901 94.93C191.901 95.1167 191.917 95.3267 191.951 95.56C191.984 95.7867 192.044 96.0067 192.131 96.22C192.224 96.4267 192.357 96.5967 192.531 96.73C192.704 96.8633 192.931 96.93 193.211 96.93Z" fill="black"/>
<path d="M231.169 100C231.169 99.6467 231.222 99.3333 231.329 99.06C231.442 98.7867 231.592 98.5367 231.779 98.31C231.966 98.0767 232.176 97.8533 232.409 97.64C232.649 97.42 232.892 97.19 233.139 96.95C233.572 96.5367 233.886 96.1533 234.079 95.8C234.272 95.4467 234.369 95.1067 234.369 94.78C234.369 94.5267 234.332 94.2833 234.259 94.05C234.192 93.81 234.069 93.6133 233.889 93.46C233.709 93.3067 233.459 93.23 233.139 93.23C232.866 93.23 232.622 93.3 232.409 93.44C232.196 93.5733 232.052 93.74 231.979 93.94C232.046 94.0067 232.092 94.08 232.119 94.16C232.146 94.2333 232.159 94.3067 232.159 94.38C232.159 94.4667 232.122 94.57 232.049 94.69C231.976 94.8033 231.849 94.8567 231.669 94.85C231.522 94.8433 231.409 94.7867 231.329 94.68C231.249 94.5733 231.209 94.4467 231.209 94.3C231.209 94.1067 231.286 93.8967 231.439 93.67C231.599 93.4433 231.832 93.25 232.139 93.09C232.452 92.9233 232.839 92.84 233.299 92.84C233.652 92.84 233.989 92.8967 234.309 93.01C234.629 93.1233 234.889 93.3133 235.089 93.58C235.296 93.84 235.399 94.1967 235.399 94.65C235.399 94.99 235.249 95.38 234.949 95.82C234.656 96.2533 234.152 96.76 233.439 97.34C232.986 97.7133 232.612 98.0667 232.319 98.4C232.032 98.7267 231.866 99.0067 231.819 99.24L233.589 99.29C233.916 99.2967 234.202 99.2967 234.449 99.29C234.702 99.2833 234.899 99.2333 235.039 99.14C235.186 99.04 235.259 98.86 235.259 98.6H235.559L235.499 100H231.169ZM239.19 100.16C238.683 100.16 238.263 100.053 237.93 99.84C237.597 99.62 237.337 99.3333 237.15 98.98C236.963 98.62 236.83 98.2267 236.75 97.8C236.677 97.3733 236.64 96.95 236.64 96.53C236.64 96.11 236.687 95.6833 236.78 95.25C236.88 94.8167 237.033 94.42 237.24 94.06C237.447 93.6933 237.713 93.4 238.04 93.18C238.367 92.9533 238.763 92.84 239.23 92.84C239.717 92.84 240.12 92.95 240.44 93.17C240.767 93.39 241.023 93.68 241.21 94.04C241.403 94.3933 241.54 94.7833 241.62 95.21C241.7 95.6367 241.74 96.06 241.74 96.48C241.74 96.8933 241.693 97.3167 241.6 97.75C241.507 98.1833 241.36 98.5833 241.16 98.95C240.96 99.31 240.697 99.6033 240.37 99.83C240.05 100.05 239.657 100.16 239.19 100.16ZM239.25 99.77C239.537 99.77 239.773 99.68 239.96 99.5C240.147 99.32 240.293 99.08 240.4 98.78C240.513 98.48 240.593 98.15 240.64 97.79C240.687 97.4233 240.71 97.0567 240.71 96.69C240.71 96.2833 240.687 95.8767 240.64 95.47C240.593 95.0633 240.513 94.69 240.4 94.35C240.287 94.01 240.133 93.7367 239.94 93.53C239.747 93.3233 239.503 93.22 239.21 93.22C238.923 93.22 238.68 93.31 238.48 93.49C238.287 93.67 238.13 93.91 238.01 94.21C237.89 94.51 237.803 94.8433 237.75 95.21C237.697 95.5767 237.67 95.9467 237.67 96.32C237.67 96.6 237.683 96.8967 237.71 97.21C237.737 97.5233 237.783 97.8333 237.85 98.14C237.923 98.44 238.02 98.7133 238.14 98.96C238.26 99.2067 238.41 99.4033 238.59 99.55C238.77 99.6967 238.99 99.77 239.25 99.77Z" fill="black"/>
<path d="M279.453 101C279.453 100.647 279.506 100.333 279.613 100.06C279.726 99.7867 279.876 99.5367 280.063 99.31C280.25 99.0767 280.46 98.8533 280.693 98.64C280.933 98.42 281.176 98.19 281.423 97.95C281.856 97.5367 282.17 97.1533 282.363 96.8C282.556 96.4467 282.653 96.1067 282.653 95.78C282.653 95.5267 282.616 95.2833 282.543 95.05C282.476 94.81 282.353 94.6133 282.173 94.46C281.993 94.3067 281.743 94.23 281.423 94.23C281.15 94.23 280.906 94.3 280.693 94.44C280.48 94.5733 280.336 94.74 280.263 94.94C280.33 95.0067 280.376 95.08 280.403 95.16C280.43 95.2333 280.443 95.3067 280.443 95.38C280.443 95.4667 280.406 95.57 280.333 95.69C280.26 95.8033 280.133 95.8567 279.953 95.85C279.806 95.8433 279.693 95.7867 279.613 95.68C279.533 95.5733 279.493 95.4467 279.493 95.3C279.493 95.1067 279.57 94.8967 279.723 94.67C279.883 94.4433 280.116 94.25 280.423 94.09C280.736 93.9233 281.123 93.84 281.583 93.84C281.936 93.84 282.273 93.8967 282.593 94.01C282.913 94.1233 283.173 94.3133 283.373 94.58C283.58 94.84 283.683 95.1967 283.683 95.65C283.683 95.99 283.533 96.38 283.233 96.82C282.94 97.2533 282.436 97.76 281.723 98.34C281.27 98.7133 280.896 99.0667 280.603 99.4C280.316 99.7267 280.15 100.007 280.103 100.24L281.873 100.29C282.2 100.297 282.486 100.297 282.733 100.29C282.986 100.283 283.183 100.233 283.323 100.14C283.47 100.04 283.543 99.86 283.543 99.6H283.843L283.783 101H279.453ZM285.104 101V100.67C285.451 100.657 285.681 100.55 285.794 100.35C285.914 100.15 285.974 99.8767 285.974 99.53L285.944 94.81L284.744 95.58L284.544 95.29L286.494 93.84H286.834L286.844 99.91C286.844 100.037 286.841 100.16 286.834 100.28C286.834 100.4 286.828 100.507 286.814 100.6C286.954 100.593 287.094 100.587 287.234 100.58C287.374 100.573 287.514 100.567 287.654 100.56V101H285.104Z" fill="black"/>
<path d="M3.58891 144C3.58891 143.647 3.64224 143.333 3.74891 143.06C3.86224 142.787 4.01224 142.537 4.19891 142.31C4.38557 142.077 4.59557 141.853 4.82891 141.64C5.06891 141.42 5.31224 141.19 5.55891 140.95C5.99224 140.537 6.30557 140.153 6.49891 139.8C6.69224 139.447 6.78891 139.107 6.78891 138.78C6.78891 138.527 6.75224 138.283 6.67891 138.05C6.61224 137.81 6.48891 137.613 6.30891 137.46C6.12891 137.307 5.87891 137.23 5.55891 137.23C5.28557 137.23 5.04224 137.3 4.82891 137.44C4.61557 137.573 4.47224 137.74 4.39891 137.94C4.46557 138.007 4.51224 138.08 4.53891 138.16C4.56557 138.233 4.57891 138.307 4.57891 138.38C4.57891 138.467 4.54224 138.57 4.46891 138.69C4.39557 138.803 4.26891 138.857 4.08891 138.85C3.94224 138.843 3.82891 138.787 3.74891 138.68C3.66891 138.573 3.62891 138.447 3.62891 138.3C3.62891 138.107 3.70557 137.897 3.85891 137.67C4.01891 137.443 4.25224 137.25 4.55891 137.09C4.87224 136.923 5.25891 136.84 5.71891 136.84C6.07224 136.84 6.40891 136.897 6.72891 137.01C7.04891 137.123 7.30891 137.313 7.50891 137.58C7.71557 137.84 7.81891 138.197 7.81891 138.65C7.81891 138.99 7.66891 139.38 7.36891 139.82C7.07557 140.253 6.57224 140.76 5.85891 141.34C5.40557 141.713 5.03224 142.067 4.73891 142.4C4.45224 142.727 4.28557 143.007 4.23891 143.24L6.00891 143.29C6.33557 143.297 6.62224 143.297 6.86891 143.29C7.12224 143.283 7.31891 143.233 7.45891 143.14C7.60557 143.04 7.67891 142.86 7.67891 142.6H7.97891L7.91891 144H3.58891ZM8.96 144C8.96 143.647 9.01333 143.333 9.12 143.06C9.23333 142.787 9.38333 142.537 9.57 142.31C9.75667 142.077 9.96667 141.853 10.2 141.64C10.44 141.42 10.6833 141.19 10.93 140.95C11.3633 140.537 11.6767 140.153 11.87 139.8C12.0633 139.447 12.16 139.107 12.16 138.78C12.16 138.527 12.1233 138.283 12.05 138.05C11.9833 137.81 11.86 137.613 11.68 137.46C11.5 137.307 11.25 137.23 10.93 137.23C10.6567 137.23 10.4133 137.3 10.2 137.44C9.98667 137.573 9.84333 137.74 9.77 137.94C9.83667 138.007 9.88333 138.08 9.91 138.16C9.93667 138.233 9.95 138.307 9.95 138.38C9.95 138.467 9.91333 138.57 9.84 138.69C9.76667 138.803 9.64 138.857 9.46 138.85C9.31333 138.843 9.2 138.787 9.12 138.68C9.04 138.573 9 138.447 9 138.3C9 138.107 9.07667 137.897 9.23 137.67C9.39 137.443 9.62333 137.25 9.93 137.09C10.2433 136.923 10.63 136.84 11.09 136.84C11.4433 136.84 11.78 136.897 12.1 137.01C12.42 137.123 12.68 137.313 12.88 137.58C13.0867 137.84 13.19 138.197 13.19 138.65C13.19 138.99 13.04 139.38 12.74 139.82C12.4467 140.253 11.9433 140.76 11.23 141.34C10.7767 141.713 10.4033 142.067 10.11 142.4C9.82333 142.727 9.65667 143.007 9.61 143.24L11.38 143.29C11.7067 143.297 11.9933 143.297 12.24 143.29C12.4933 143.283 12.69 143.233 12.83 143.14C12.9767 143.04 13.05 142.86 13.05 142.6H13.35L13.29 144H8.96Z" fill="black"/>
<path d="M48.5645 144C48.5645 143.647 48.6178 143.333 48.7245 143.06C48.8378 142.787 48.9878 142.537 49.1745 142.31C49.3612 142.077 49.5712 141.853 49.8045 141.64C50.0445 141.42 50.2878 141.19 50.5345 140.95C50.9678 140.537 51.2812 140.153 51.4745 139.8C51.6678 139.447 51.7645 139.107 51.7645 138.78C51.7645 138.527 51.7278 138.283 51.6545 138.05C51.5878 137.81 51.4645 137.613 51.2845 137.46C51.1045 137.307 50.8545 137.23 50.5345 137.23C50.2612 137.23 50.0178 137.3 49.8045 137.44C49.5912 137.573 49.4478 137.74 49.3745 137.94C49.4412 138.007 49.4878 138.08 49.5145 138.16C49.5412 138.233 49.5545 138.307 49.5545 138.38C49.5545 138.467 49.5178 138.57 49.4445 138.69C49.3712 138.803 49.2445 138.857 49.0645 138.85C48.9178 138.843 48.8045 138.787 48.7245 138.68C48.6445 138.573 48.6045 138.447 48.6045 138.3C48.6045 138.107 48.6812 137.897 48.8345 137.67C48.9945 137.443 49.2278 137.25 49.5345 137.09C49.8478 136.923 50.2345 136.84 50.6945 136.84C51.0478 136.84 51.3845 136.897 51.7045 137.01C52.0245 137.123 52.2845 137.313 52.4845 137.58C52.6912 137.84 52.7945 138.197 52.7945 138.65C52.7945 138.99 52.6445 139.38 52.3445 139.82C52.0512 140.253 51.5478 140.76 50.8345 141.34C50.3812 141.713 50.0078 142.067 49.7145 142.4C49.4278 142.727 49.2612 143.007 49.2145 143.24L50.9845 143.29C51.3112 143.297 51.5978 143.297 51.8445 143.29C52.0978 143.283 52.2945 143.233 52.4345 143.14C52.5812 143.04 52.6545 142.86 52.6545 142.6H52.9545L52.8945 144H48.5645ZM55.8791 144.16C55.3991 144.16 55.0024 144.09 54.6891 143.95C54.3758 143.803 54.1424 143.623 53.9891 143.41C53.8424 143.197 53.7691 142.993 53.7691 142.8C53.7691 142.647 53.8091 142.52 53.8891 142.42C53.9691 142.313 54.0824 142.257 54.2291 142.25C54.4091 142.237 54.5324 142.287 54.5991 142.4C54.6658 142.507 54.6991 142.607 54.6991 142.7C54.6991 142.767 54.6891 142.833 54.6691 142.9C54.6491 142.967 54.6224 143.033 54.5891 143.1C54.6558 143.327 54.8058 143.49 55.0391 143.59C55.2791 143.69 55.5358 143.74 55.8091 143.74C56.2824 143.74 56.6591 143.61 56.9391 143.35C57.2258 143.09 57.3691 142.713 57.3691 142.22C57.3691 141.927 57.3224 141.65 57.2291 141.39C57.1358 141.123 56.9624 140.907 56.7091 140.74C56.4558 140.573 56.0858 140.497 55.5991 140.51C55.5458 140.51 55.4891 140.513 55.4291 140.52C55.3691 140.52 55.3024 140.523 55.2291 140.53V140.08H55.6391C55.9924 140.08 56.2691 140 56.4691 139.84C56.6691 139.68 56.8124 139.49 56.8991 139.27C56.9858 139.05 57.0291 138.847 57.0291 138.66C57.0291 138.387 56.9924 138.143 56.9191 137.93C56.8524 137.71 56.7324 137.54 56.5591 137.42C56.3858 137.293 56.1458 137.23 55.8391 137.23C55.5391 137.23 55.2824 137.31 55.0691 137.47C54.8558 137.623 54.7224 137.783 54.6691 137.95C54.7291 138.017 54.7691 138.083 54.7891 138.15C54.8158 138.217 54.8291 138.287 54.8291 138.36C54.8291 138.44 54.7958 138.533 54.7291 138.64C54.6624 138.747 54.5424 138.797 54.3691 138.79C54.2291 138.79 54.1224 138.74 54.0491 138.64C53.9758 138.54 53.9391 138.42 53.9391 138.28C53.9391 138.093 54.0124 137.89 54.1591 137.67C54.3058 137.443 54.5291 137.25 54.8291 137.09C55.1358 136.923 55.5191 136.84 55.9791 136.84C56.3391 136.84 56.6724 136.897 56.9791 137.01C57.2858 137.123 57.5324 137.31 57.7191 137.57C57.9058 137.823 57.9991 138.16 57.9991 138.58C57.9991 138.893 57.8791 139.203 57.6391 139.51C57.3991 139.81 56.9724 140.057 56.3591 140.25C56.9924 140.317 57.4891 140.52 57.8491 140.86C58.2158 141.2 58.3991 141.63 58.3991 142.15C58.3991 142.603 58.2791 142.98 58.0391 143.28C57.8058 143.573 57.4958 143.793 57.1091 143.94C56.7291 144.087 56.3191 144.16 55.8791 144.16Z" fill="black"/>
<path d="M95.6768 144C95.6768 143.647 95.7301 143.333 95.8368 143.06C95.9501 142.787 96.1001 142.537 96.2868 142.31C96.4735 142.077 96.6835 141.853 96.9168 141.64C97.1568 141.42 97.4001 141.19 97.6468 140.95C98.0801 140.537 98.3935 140.153 98.5868 139.8C98.7801 139.447 98.8768 139.107 98.8768 138.78C98.8768 138.527 98.8401 138.283 98.7668 138.05C98.7001 137.81 98.5768 137.613 98.3968 137.46C98.2168 137.307 97.9668 137.23 97.6468 137.23C97.3735 137.23 97.1301 137.3 96.9168 137.44C96.7035 137.573 96.5601 137.74 96.4868 137.94C96.5535 138.007 96.6001 138.08 96.6268 138.16C96.6535 138.233 96.6668 138.307 96.6668 138.38C96.6668 138.467 96.6301 138.57 96.5568 138.69C96.4835 138.803 96.3568 138.857 96.1768 138.85C96.0301 138.843 95.9168 138.787 95.8368 138.68C95.7568 138.573 95.7168 138.447 95.7168 138.3C95.7168 138.107 95.7935 137.897 95.9468 137.67C96.1068 137.443 96.3401 137.25 96.6468 137.09C96.9601 136.923 97.3468 136.84 97.8068 136.84C98.1601 136.84 98.4968 136.897 98.8168 137.01C99.1368 137.123 99.3968 137.313 99.5968 137.58C99.8035 137.84 99.9068 138.197 99.9068 138.65C99.9068 138.99 99.7568 139.38 99.4568 139.82C99.1635 140.253 98.6601 140.76 97.9468 141.34C97.4935 141.713 97.1201 142.067 96.8268 142.4C96.5401 142.727 96.3735 143.007 96.3268 143.24L98.0968 143.29C98.4235 143.297 98.7101 143.297 98.9568 143.29C99.2101 143.283 99.4068 143.233 99.5468 143.14C99.6935 143.04 99.7668 142.86 99.7668 142.6H100.067L100.007 144H95.6768ZM104.433 142.91C104.433 143.043 104.43 143.17 104.423 143.29C104.423 143.41 104.413 143.52 104.393 143.62C104.527 143.613 104.657 143.61 104.783 143.61C104.91 143.603 105.037 143.597 105.163 143.59V144H102.653V143.67H102.723C103.063 143.643 103.28 143.52 103.373 143.3C103.473 143.073 103.523 142.777 103.523 142.41V142.07H100.483V141.58L104.103 136.84H104.433V141.47L105.443 141.48V142.07H104.433V142.91ZM103.503 138.26L101.143 141.42L103.523 141.45V138.26H103.503Z" fill="black"/>
<path d="M140.55 144C140.55 143.647 140.603 143.333 140.71 143.06C140.823 142.787 140.973 142.537 141.16 142.31C141.347 142.077 141.557 141.853 141.79 141.64C142.03 141.42 142.273 141.19 142.52 140.95C142.953 140.537 143.267 140.153 143.46 139.8C143.653 139.447 143.75 139.107 143.75 138.78C143.75 138.527 143.713 138.283 143.64 138.05C143.573 137.81 143.45 137.613 143.27 137.46C143.09 137.307 142.84 137.23 142.52 137.23C142.247 137.23 142.003 137.3 141.79 137.44C141.577 137.573 141.433 137.74 141.36 137.94C141.427 138.007 141.473 138.08 141.5 138.16C141.527 138.233 141.54 138.307 141.54 138.38C141.54 138.467 141.503 138.57 141.43 138.69C141.357 138.803 141.23 138.857 141.05 138.85C140.903 138.843 140.79 138.787 140.71 138.68C140.63 138.573 140.59 138.447 140.59 138.3C140.59 138.107 140.667 137.897 140.82 137.67C140.98 137.443 141.213 137.25 141.52 137.09C141.833 136.923 142.22 136.84 142.68 136.84C143.033 136.84 143.37 136.897 143.69 137.01C144.01 137.123 144.27 137.313 144.47 137.58C144.677 137.84 144.78 138.197 144.78 138.65C144.78 138.99 144.63 139.38 144.33 139.82C144.037 140.253 143.533 140.76 142.82 141.34C142.367 141.713 141.993 142.067 141.7 142.4C141.413 142.727 141.247 143.007 141.2 143.24L142.97 143.29C143.297 143.297 143.583 143.297 143.83 143.29C144.083 143.283 144.28 143.233 144.42 143.14C144.567 143.04 144.64 142.86 144.64 142.6H144.94L144.88 144H140.55ZM148.001 144.16C147.574 144.16 147.211 144.09 146.911 143.95C146.611 143.803 146.381 143.623 146.221 143.41C146.061 143.197 145.981 142.993 145.981 142.8C145.981 142.647 146.021 142.52 146.101 142.42C146.181 142.313 146.294 142.257 146.441 142.25C146.621 142.237 146.744 142.287 146.811 142.4C146.878 142.507 146.911 142.607 146.911 142.7C146.911 142.767 146.901 142.833 146.881 142.9C146.861 142.967 146.834 143.03 146.801 143.09C146.828 143.25 146.911 143.383 147.051 143.49C147.191 143.59 147.351 143.663 147.531 143.71C147.718 143.757 147.888 143.777 148.041 143.77C148.368 143.757 148.631 143.67 148.831 143.51C149.031 143.343 149.178 143.133 149.271 142.88C149.371 142.627 149.421 142.36 149.421 142.08C149.421 141.893 149.404 141.687 149.371 141.46C149.344 141.233 149.278 141.02 149.171 140.82C149.071 140.613 148.918 140.443 148.711 140.31C148.504 140.177 148.224 140.11 147.871 140.11C147.758 140.11 147.618 140.123 147.451 140.15C147.291 140.177 147.128 140.217 146.961 140.27C146.801 140.323 146.664 140.387 146.551 140.46L146.271 140.2L146.251 137H148.841C149.221 137 149.481 136.95 149.621 136.85C149.768 136.743 149.841 136.577 149.841 136.35H150.111L150.051 137.67L146.711 137.74V139.94C146.871 139.873 147.078 139.81 147.331 139.75C147.591 139.69 147.868 139.66 148.161 139.66C148.574 139.66 148.924 139.727 149.211 139.86C149.504 139.987 149.741 140.16 149.921 140.38C150.108 140.593 150.244 140.833 150.331 141.1C150.418 141.36 150.461 141.627 150.461 141.9C150.461 142.393 150.344 142.81 150.111 143.15C149.884 143.483 149.584 143.737 149.211 143.91C148.838 144.077 148.434 144.16 148.001 144.16Z" fill="black"/>
<path d="M186.384 144C186.384 143.647 186.437 143.333 186.544 143.06C186.657 142.787 186.807 142.537 186.994 142.31C187.18 142.077 187.39 141.853 187.624 141.64C187.864 141.42 188.107 141.19 188.354 140.95C188.787 140.537 189.1 140.153 189.294 139.8C189.487 139.447 189.584 139.107 189.584 138.78C189.584 138.527 189.547 138.283 189.474 138.05C189.407 137.81 189.284 137.613 189.104 137.46C188.924 137.307 188.674 137.23 188.354 137.23C188.08 137.23 187.837 137.3 187.624 137.44C187.41 137.573 187.267 137.74 187.194 137.94C187.26 138.007 187.307 138.08 187.334 138.16C187.36 138.233 187.374 138.307 187.374 138.38C187.374 138.467 187.337 138.57 187.264 138.69C187.19 138.803 187.064 138.857 186.884 138.85C186.737 138.843 186.624 138.787 186.544 138.68C186.464 138.573 186.424 138.447 186.424 138.3C186.424 138.107 186.5 137.897 186.654 137.67C186.814 137.443 187.047 137.25 187.354 137.09C187.667 136.923 188.054 136.84 188.514 136.84C188.867 136.84 189.204 136.897 189.524 137.01C189.844 137.123 190.104 137.313 190.304 137.58C190.51 137.84 190.614 138.197 190.614 138.65C190.614 138.99 190.464 139.38 190.164 139.82C189.87 140.253 189.367 140.76 188.654 141.34C188.2 141.713 187.827 142.067 187.534 142.4C187.247 142.727 187.08 143.007 187.034 143.24L188.804 143.29C189.13 143.297 189.417 143.297 189.664 143.29C189.917 143.283 190.114 143.233 190.254 143.14C190.4 143.04 190.474 142.86 190.474 142.6H190.774L190.714 144H186.384ZM194.245 144.16C193.652 144.16 193.178 144.02 192.825 143.74C192.478 143.46 192.228 143.063 192.075 142.55C191.928 142.03 191.855 141.417 191.855 140.71C191.855 140.47 191.875 140.187 191.915 139.86C191.962 139.527 192.042 139.187 192.155 138.84C192.268 138.487 192.425 138.16 192.625 137.86C192.832 137.553 193.095 137.307 193.415 137.12C193.735 136.933 194.122 136.84 194.575 136.84C194.975 136.84 195.305 136.913 195.565 137.06C195.825 137.2 196.018 137.37 196.145 137.57C196.278 137.763 196.345 137.943 196.345 138.11C196.345 138.25 196.308 138.37 196.235 138.47C196.168 138.563 196.062 138.617 195.915 138.63C195.748 138.637 195.632 138.59 195.565 138.49C195.498 138.39 195.465 138.297 195.465 138.21C195.465 138.07 195.505 137.93 195.585 137.79C195.552 137.67 195.445 137.543 195.265 137.41C195.092 137.277 194.868 137.21 194.595 137.21C194.288 137.21 194.028 137.29 193.815 137.45C193.608 137.61 193.438 137.82 193.305 138.08C193.178 138.34 193.078 138.62 193.005 138.92C192.932 139.213 192.878 139.497 192.845 139.77C192.818 140.043 192.802 140.277 192.795 140.47C192.962 140.25 193.185 140.057 193.465 139.89C193.752 139.717 194.088 139.63 194.475 139.63C194.875 139.63 195.208 139.7 195.475 139.84C195.748 139.973 195.965 140.15 196.125 140.37C196.292 140.59 196.408 140.833 196.475 141.1C196.548 141.36 196.585 141.617 196.585 141.87C196.585 142.283 196.482 142.667 196.275 143.02C196.075 143.367 195.798 143.643 195.445 143.85C195.092 144.057 194.692 144.16 194.245 144.16ZM194.265 143.77C194.578 143.77 194.832 143.693 195.025 143.54C195.218 143.38 195.358 143.173 195.445 142.92C195.532 142.66 195.575 142.383 195.575 142.09C195.575 141.903 195.558 141.697 195.525 141.47C195.492 141.237 195.428 141.017 195.335 140.81C195.248 140.597 195.118 140.423 194.945 140.29C194.772 140.15 194.545 140.08 194.265 140.08C194.058 140.08 193.855 140.133 193.655 140.24C193.455 140.34 193.278 140.473 193.125 140.64C192.978 140.807 192.872 140.987 192.805 141.18C192.825 141.5 192.862 141.813 192.915 142.12C192.975 142.427 193.058 142.703 193.165 142.95C193.278 143.197 193.425 143.397 193.605 143.55C193.785 143.697 194.005 143.77 194.265 143.77Z" fill="black"/>
<path d="M231.97 144C231.97 143.647 232.023 143.333 232.13 143.06C232.243 142.787 232.393 142.537 232.58 142.31C232.766 142.077 232.976 141.853 233.21 141.64C233.45 141.42 233.693 141.19 233.94 140.95C234.373 140.537 234.686 140.153 234.88 139.8C235.073 139.447 235.17 139.107 235.17 138.78C235.17 138.527 235.133 138.283 235.06 138.05C234.993 137.81 234.87 137.613 234.69 137.46C234.51 137.307 234.26 137.23 233.94 137.23C233.666 137.23 233.423 137.3 233.21 137.44C232.996 137.573 232.853 137.74 232.78 137.94C232.846 138.007 232.893 138.08 232.92 138.16C232.946 138.233 232.96 138.307 232.96 138.38C232.96 138.467 232.923 138.57 232.85 138.69C232.776 138.803 232.65 138.857 232.47 138.85C232.323 138.843 232.21 138.787 232.13 138.68C232.05 138.573 232.01 138.447 232.01 138.3C232.01 138.107 232.086 137.897 232.24 137.67C232.4 137.443 232.633 137.25 232.94 137.09C233.253 136.923 233.64 136.84 234.1 136.84C234.453 136.84 234.79 136.897 235.11 137.01C235.43 137.123 235.69 137.313 235.89 137.58C236.096 137.84 236.2 138.197 236.2 138.65C236.2 138.99 236.05 139.38 235.75 139.82C235.456 140.253 234.953 140.76 234.24 141.34C233.786 141.713 233.413 142.067 233.12 142.4C232.833 142.727 232.666 143.007 232.62 143.24L234.39 143.29C234.716 143.297 235.003 143.297 235.25 143.29C235.503 143.283 235.7 143.233 235.84 143.14C235.986 143.04 236.06 142.86 236.06 142.6H236.36L236.3 144H231.97ZM238.831 144.16C238.704 144.147 238.614 144.1 238.561 144.02C238.508 143.94 238.481 143.84 238.481 143.72C238.481 143.573 238.518 143.383 238.591 143.15C238.671 142.917 238.764 142.67 238.871 142.41C238.978 142.143 239.074 141.9 239.161 141.68C239.288 141.367 239.438 140.987 239.611 140.54C239.784 140.093 239.974 139.623 240.181 139.13C240.394 138.63 240.611 138.15 240.831 137.69L238.191 137.7C237.924 137.707 237.714 137.77 237.561 137.89C237.414 138.01 237.341 138.207 237.341 138.48H237.101V137H241.291V137.68C241.051 138.18 240.841 138.657 240.661 139.11C240.488 139.563 240.331 140.02 240.191 140.48C240.051 140.933 239.918 141.41 239.791 141.91C239.664 142.41 239.528 142.957 239.381 143.55C239.341 143.71 239.278 143.853 239.191 143.98C239.111 144.107 238.991 144.167 238.831 144.16Z" fill="black"/>
<path d="M278.467 144C278.467 143.647 278.52 143.333 278.627 143.06C278.74 142.787 278.89 142.537 279.077 142.31C279.264 142.077 279.474 141.853 279.707 141.64C279.947 141.42 280.19 141.19 280.437 140.95C280.87 140.537 281.184 140.153 281.377 139.8C281.57 139.447 281.667 139.107 281.667 138.78C281.667 138.527 281.63 138.283 281.557 138.05C281.49 137.81 281.367 137.613 281.187 137.46C281.007 137.307 280.757 137.23 280.437 137.23C280.164 137.23 279.92 137.3 279.707 137.44C279.494 137.573 279.35 137.74 279.277 137.94C279.344 138.007 279.39 138.08 279.417 138.16C279.444 138.233 279.457 138.307 279.457 138.38C279.457 138.467 279.42 138.57 279.347 138.69C279.274 138.803 279.147 138.857 278.967 138.85C278.82 138.843 278.707 138.787 278.627 138.68C278.547 138.573 278.507 138.447 278.507 138.3C278.507 138.107 278.584 137.897 278.737 137.67C278.897 137.443 279.13 137.25 279.437 137.09C279.75 136.923 280.137 136.84 280.597 136.84C280.95 136.84 281.287 136.897 281.607 137.01C281.927 137.123 282.187 137.313 282.387 137.58C282.594 137.84 282.697 138.197 282.697 138.65C282.697 138.99 282.547 139.38 282.247 139.82C281.954 140.253 281.45 140.76 280.737 141.34C280.284 141.713 279.91 142.067 279.617 142.4C279.33 142.727 279.164 143.007 279.117 143.24L280.887 143.29C281.214 143.297 281.5 143.297 281.747 143.29C282 143.283 282.197 143.233 282.337 143.14C282.484 143.04 282.557 142.86 282.557 142.6H282.857L282.797 144H278.467ZM286.138 144.16C285.905 144.16 285.661 144.13 285.408 144.07C285.155 144.017 284.918 143.927 284.698 143.8C284.485 143.673 284.308 143.503 284.168 143.29C284.035 143.077 283.968 142.813 283.968 142.5C283.968 142.2 284.041 141.927 284.188 141.68C284.335 141.427 284.521 141.2 284.748 141C284.981 140.793 285.228 140.61 285.488 140.45C284.981 140.143 284.625 139.84 284.418 139.54C284.211 139.233 284.108 138.937 284.108 138.65C284.108 138.23 284.215 137.887 284.428 137.62C284.641 137.353 284.911 137.157 285.238 137.03C285.565 136.903 285.895 136.84 286.228 136.84C286.568 136.84 286.885 136.903 287.178 137.03C287.478 137.15 287.718 137.33 287.898 137.57C288.085 137.81 288.178 138.103 288.178 138.45C288.178 138.843 288.045 139.187 287.778 139.48C287.518 139.773 287.201 140.013 286.828 140.2C287.128 140.373 287.405 140.573 287.658 140.8C287.911 141.02 288.115 141.26 288.268 141.52C288.421 141.78 288.498 142.053 288.498 142.34C288.498 142.76 288.388 143.107 288.168 143.38C287.948 143.647 287.658 143.843 287.298 143.97C286.938 144.097 286.551 144.16 286.138 144.16ZM286.478 140C286.771 139.8 286.995 139.573 287.148 139.32C287.308 139.067 287.391 138.817 287.398 138.57C287.411 138.137 287.311 137.807 287.098 137.58C286.885 137.353 286.601 137.237 286.248 137.23C285.988 137.223 285.768 137.28 285.588 137.4C285.408 137.513 285.271 137.663 285.178 137.85C285.085 138.03 285.038 138.223 285.038 138.43C285.038 138.797 285.175 139.117 285.448 139.39C285.728 139.657 286.071 139.86 286.478 140ZM286.158 143.76C286.591 143.767 286.925 143.66 287.158 143.44C287.398 143.22 287.518 142.917 287.518 142.53C287.518 142.183 287.395 141.847 287.148 141.52C286.908 141.187 286.481 140.89 285.868 140.63C285.501 140.897 285.235 141.183 285.068 141.49C284.908 141.797 284.821 142.073 284.808 142.32C284.781 142.747 284.891 143.093 285.138 143.36C285.391 143.62 285.731 143.753 286.158 143.76Z" fill="black"/>
<path d="M3.38383 188C3.38383 187.647 3.43716 187.333 3.54383 187.06C3.65716 186.787 3.80716 186.537 3.99383 186.31C4.18049 186.077 4.39049 185.853 4.62383 185.64C4.86383 185.42 5.10716 185.19 5.35383 184.95C5.78716 184.537 6.1005 184.153 6.29383 183.8C6.48716 183.447 6.58383 183.107 6.58383 182.78C6.58383 182.527 6.54716 182.283 6.47383 182.05C6.40716 181.81 6.28383 181.613 6.10383 181.46C5.92383 181.307 5.67383 181.23 5.35383 181.23C5.08049 181.23 4.83716 181.3 4.62383 181.44C4.41049 181.573 4.26716 181.74 4.19383 181.94C4.26049 182.007 4.30716 182.08 4.33383 182.16C4.36049 182.233 4.37383 182.307 4.37383 182.38C4.37383 182.467 4.33716 182.57 4.26383 182.69C4.19049 182.803 4.06383 182.857 3.88383 182.85C3.73716 182.843 3.62383 182.787 3.54383 182.68C3.46383 182.573 3.42383 182.447 3.42383 182.3C3.42383 182.107 3.50049 181.897 3.65383 181.67C3.81383 181.443 4.04716 181.25 4.35383 181.09C4.66716 180.923 5.05383 180.84 5.51383 180.84C5.86716 180.84 6.20383 180.897 6.52383 181.01C6.84383 181.123 7.10383 181.313 7.30383 181.58C7.51049 181.84 7.61383 182.197 7.61383 182.65C7.61383 182.99 7.46383 183.38 7.16383 183.82C6.8705 184.253 6.36716 184.76 5.65383 185.34C5.20049 185.713 4.82716 186.067 4.53383 186.4C4.24716 186.727 4.08049 187.007 4.03383 187.24L5.80383 187.29C6.13049 187.297 6.41716 187.297 6.66383 187.29C6.91716 187.283 7.11383 187.233 7.25383 187.14C7.40049 187.04 7.47383 186.86 7.47383 186.6H7.77383L7.71383 188H3.38383ZM10.8649 188.16C10.4316 188.16 10.0783 188.097 9.80492 187.97C9.53826 187.837 9.34492 187.673 9.22492 187.48C9.10492 187.287 9.04492 187.103 9.04492 186.93C9.04492 186.783 9.08159 186.66 9.15492 186.56C9.22826 186.46 9.33826 186.407 9.48492 186.4C9.64492 186.393 9.75826 186.443 9.82492 186.55C9.89826 186.65 9.93492 186.743 9.93492 186.83C9.93492 186.97 9.88826 187.107 9.79492 187.24C9.84159 187.387 9.94159 187.513 10.0949 187.62C10.2549 187.727 10.4949 187.78 10.8149 187.78C11.1216 187.78 11.3783 187.707 11.5849 187.56C11.7916 187.413 11.9583 187.22 12.0849 186.98C12.2116 186.733 12.3083 186.467 12.3749 186.18C12.4416 185.887 12.4849 185.597 12.5049 185.31C12.5316 185.023 12.5449 184.767 12.5449 184.54C12.3783 184.767 12.1549 184.963 11.8749 185.13C11.5949 185.297 11.2583 185.38 10.8649 185.38C10.4649 185.38 10.1283 185.313 9.85492 185.18C9.58826 185.04 9.37492 184.86 9.21492 184.64C9.06159 184.42 8.94826 184.18 8.87492 183.92C8.80826 183.66 8.77492 183.403 8.77492 183.15C8.77492 182.717 8.87159 182.327 9.06492 181.98C9.25826 181.627 9.53159 181.35 9.88492 181.15C10.2383 180.943 10.6549 180.84 11.1349 180.84C11.6083 180.84 11.9949 180.93 12.2949 181.11C12.6016 181.29 12.8416 181.543 13.0149 181.87C13.1883 182.19 13.3083 182.567 13.3749 183C13.4483 183.433 13.4849 183.903 13.4849 184.41C13.4849 184.703 13.4649 185.02 13.4249 185.36C13.3916 185.693 13.3216 186.027 13.2149 186.36C13.1149 186.687 12.9683 186.987 12.7749 187.26C12.5816 187.527 12.3283 187.743 12.0149 187.91C11.7016 188.077 11.3183 188.16 10.8649 188.16ZM11.0749 184.93C11.2883 184.93 11.4916 184.88 11.6849 184.78C11.8849 184.673 12.0616 184.537 12.2149 184.37C12.3683 184.203 12.4749 184.023 12.5349 183.83C12.5149 183.517 12.4783 183.207 12.4249 182.9C12.3716 182.593 12.2883 182.313 12.1749 182.06C12.0683 181.807 11.9249 181.603 11.7449 181.45C11.5649 181.297 11.3383 181.22 11.0649 181.22C10.7783 181.22 10.5383 181.303 10.3449 181.47C10.1516 181.63 10.0049 181.84 9.90492 182.1C9.81159 182.36 9.76492 182.637 9.76492 182.93C9.76492 183.117 9.78159 183.327 9.81492 183.56C9.84826 183.787 9.90826 184.007 9.99492 184.22C10.0883 184.427 10.2216 184.597 10.3949 184.73C10.5683 184.863 10.7949 184.93 11.0749 184.93Z" fill="black"/>
<path d="M51.1613 188.16C50.6813 188.16 50.2847 188.09 49.9713 187.95C49.658 187.803 49.4247 187.623 49.2713 187.41C49.1247 187.197 49.0513 186.993 49.0513 186.8C49.0513 186.647 49.0913 186.52 49.1713 186.42C49.2513 186.313 49.3647 186.257 49.5113 186.25C49.6913 186.237 49.8147 186.287 49.8813 186.4C49.948 186.507 49.9813 186.607 49.9813 186.7C49.9813 186.767 49.9713 186.833 49.9513 186.9C49.9313 186.967 49.9047 187.033 49.8713 187.1C49.938 187.327 50.088 187.49 50.3213 187.59C50.5613 187.69 50.818 187.74 51.0913 187.74C51.5647 187.74 51.9413 187.61 52.2213 187.35C52.508 187.09 52.6513 186.713 52.6513 186.22C52.6513 185.927 52.6047 185.65 52.5113 185.39C52.418 185.123 52.2447 184.907 51.9913 184.74C51.738 184.573 51.368 184.497 50.8813 184.51C50.828 184.51 50.7713 184.513 50.7113 184.52C50.6513 184.52 50.5847 184.523 50.5113 184.53V184.08H50.9213C51.2747 184.08 51.5513 184 51.7513 183.84C51.9513 183.68 52.0947 183.49 52.1813 183.27C52.268 183.05 52.3113 182.847 52.3113 182.66C52.3113 182.387 52.2747 182.143 52.2013 181.93C52.1347 181.71 52.0147 181.54 51.8413 181.42C51.668 181.293 51.428 181.23 51.1213 181.23C50.8213 181.23 50.5647 181.31 50.3513 181.47C50.138 181.623 50.0047 181.783 49.9513 181.95C50.0113 182.017 50.0513 182.083 50.0713 182.15C50.098 182.217 50.1113 182.287 50.1113 182.36C50.1113 182.44 50.078 182.533 50.0113 182.64C49.9447 182.747 49.8247 182.797 49.6513 182.79C49.5113 182.79 49.4047 182.74 49.3313 182.64C49.258 182.54 49.2213 182.42 49.2213 182.28C49.2213 182.093 49.2947 181.89 49.4413 181.67C49.588 181.443 49.8113 181.25 50.1113 181.09C50.418 180.923 50.8013 180.84 51.2613 180.84C51.6213 180.84 51.9547 180.897 52.2613 181.01C52.568 181.123 52.8147 181.31 53.0013 181.57C53.188 181.823 53.2813 182.16 53.2813 182.58C53.2813 182.893 53.1613 183.203 52.9213 183.51C52.6813 183.81 52.2547 184.057 51.6413 184.25C52.2747 184.317 52.7713 184.52 53.1313 184.86C53.498 185.2 53.6813 185.63 53.6813 186.15C53.6813 186.603 53.5613 186.98 53.3213 187.28C53.088 187.573 52.778 187.793 52.3913 187.94C52.0113 188.087 51.6013 188.16 51.1613 188.16ZM57.2877 188.16C56.7811 188.16 56.3611 188.053 56.0277 187.84C55.6944 187.62 55.4344 187.333 55.2477 186.98C55.0611 186.62 54.9277 186.227 54.8477 185.8C54.7744 185.373 54.7377 184.95 54.7377 184.53C54.7377 184.11 54.7844 183.683 54.8777 183.25C54.9777 182.817 55.1311 182.42 55.3377 182.06C55.5444 181.693 55.8111 181.4 56.1377 181.18C56.4644 180.953 56.8611 180.84 57.3277 180.84C57.8144 180.84 58.2177 180.95 58.5377 181.17C58.8644 181.39 59.1211 181.68 59.3077 182.04C59.5011 182.393 59.6377 182.783 59.7177 183.21C59.7977 183.637 59.8377 184.06 59.8377 184.48C59.8377 184.893 59.7911 185.317 59.6977 185.75C59.6044 186.183 59.4577 186.583 59.2577 186.95C59.0577 187.31 58.7944 187.603 58.4677 187.83C58.1477 188.05 57.7544 188.16 57.2877 188.16ZM57.3477 187.77C57.6344 187.77 57.8711 187.68 58.0577 187.5C58.2444 187.32 58.3911 187.08 58.4977 186.78C58.6111 186.48 58.6911 186.15 58.7377 185.79C58.7844 185.423 58.8077 185.057 58.8077 184.69C58.8077 184.283 58.7844 183.877 58.7377 183.47C58.6911 183.063 58.6111 182.69 58.4977 182.35C58.3844 182.01 58.2311 181.737 58.0377 181.53C57.8444 181.323 57.6011 181.22 57.3077 181.22C57.0211 181.22 56.7777 181.31 56.5777 181.49C56.3844 181.67 56.2277 181.91 56.1077 182.21C55.9877 182.51 55.9011 182.843 55.8477 183.21C55.7944 183.577 55.7677 183.947 55.7677 184.32C55.7677 184.6 55.7811 184.897 55.8077 185.21C55.8344 185.523 55.8811 185.833 55.9477 186.14C56.0211 186.44 56.1177 186.713 56.2377 186.96C56.3577 187.207 56.5077 187.403 56.6877 187.55C56.8677 187.697 57.0877 187.77 57.3477 187.77Z" fill="black"/>
<path d="M97.4455 188.16C96.9655 188.16 96.5688 188.09 96.2555 187.95C95.9422 187.803 95.7088 187.623 95.5555 187.41C95.4088 187.197 95.3355 186.993 95.3355 186.8C95.3355 186.647 95.3755 186.52 95.4555 186.42C95.5355 186.313 95.6488 186.257 95.7955 186.25C95.9755 186.237 96.0988 186.287 96.1655 186.4C96.2322 186.507 96.2655 186.607 96.2655 186.7C96.2655 186.767 96.2555 186.833 96.2355 186.9C96.2155 186.967 96.1888 187.033 96.1555 187.1C96.2222 187.327 96.3722 187.49 96.6055 187.59C96.8455 187.69 97.1022 187.74 97.3755 187.74C97.8488 187.74 98.2255 187.61 98.5055 187.35C98.7922 187.09 98.9355 186.713 98.9355 186.22C98.9355 185.927 98.8888 185.65 98.7955 185.39C98.7022 185.123 98.5288 184.907 98.2755 184.74C98.0222 184.573 97.6522 184.497 97.1655 184.51C97.1122 184.51 97.0555 184.513 96.9955 184.52C96.9355 184.52 96.8688 184.523 96.7955 184.53V184.08H97.2055C97.5588 184.08 97.8355 184 98.0355 183.84C98.2355 183.68 98.3788 183.49 98.4655 183.27C98.5522 183.05 98.5955 182.847 98.5955 182.66C98.5955 182.387 98.5588 182.143 98.4855 181.93C98.4188 181.71 98.2988 181.54 98.1255 181.42C97.9522 181.293 97.7122 181.23 97.4055 181.23C97.1055 181.23 96.8488 181.31 96.6355 181.47C96.4222 181.623 96.2888 181.783 96.2355 181.95C96.2955 182.017 96.3355 182.083 96.3555 182.15C96.3822 182.217 96.3955 182.287 96.3955 182.36C96.3955 182.44 96.3622 182.533 96.2955 182.64C96.2288 182.747 96.1088 182.797 95.9355 182.79C95.7955 182.79 95.6888 182.74 95.6155 182.64C95.5422 182.54 95.5055 182.42 95.5055 182.28C95.5055 182.093 95.5788 181.89 95.7255 181.67C95.8722 181.443 96.0955 181.25 96.3955 181.09C96.7022 180.923 97.0855 180.84 97.5455 180.84C97.9055 180.84 98.2388 180.897 98.5455 181.01C98.8522 181.123 99.0988 181.31 99.2855 181.57C99.4722 181.823 99.5655 182.16 99.5655 182.58C99.5655 182.893 99.4455 183.203 99.2055 183.51C98.9655 183.81 98.5388 184.057 97.9255 184.25C98.5588 184.317 99.0555 184.52 99.4155 184.86C99.7822 185.2 99.9655 185.63 99.9655 186.15C99.9655 186.603 99.8455 186.98 99.6055 187.28C99.3722 187.573 99.0622 187.793 98.6755 187.94C98.2955 188.087 97.8855 188.16 97.4455 188.16ZM101.202 188V187.67C101.549 187.657 101.779 187.55 101.892 187.35C102.012 187.15 102.072 186.877 102.072 186.53L102.042 181.81L100.842 182.58L100.642 182.29L102.592 180.84H102.932L102.942 186.91C102.942 187.037 102.939 187.16 102.932 187.28C102.932 187.4 102.925 187.507 102.912 187.6C103.052 187.593 103.192 187.587 103.332 187.58C103.472 187.573 103.612 187.567 103.752 187.56V188H101.202Z" fill="black"/>
</svg>
