<svg width="276" height="70" viewBox="0 0 276 70" fill="none" xmlns="http://www.w3.org/2000/svg">
<g filter="url(#filter0_d)">
<path d="M25 3.64799e-05C54 4.99762e-05 171 1.78833e-05 253 3.64799e-05C277.213 4.1971e-05 277 62 253 62C229 62 51 62 25 62C-0.999994 62 -4.00001 2.29837e-05 25 3.64799e-05Z" fill="#6BBF73"/>
<path d="M25 1.50004H253C258.286 1.50004 262.394 4.8472 265.258 10.3773C268.126 15.9164 269.593 23.4111 269.58 30.9974C269.567 38.5834 268.075 46.08 265.199 51.6215C262.325 57.1579 258.229 60.5 253 60.5H25C19.1938 60.5 14.5514 57.0658 11.2397 51.5413C7.91878 46.0015 6.05738 38.5201 5.87456 30.9637C5.69165 23.4035 7.19301 15.9497 10.405 10.4433C13.5863 4.98983 18.3917 1.50003 25 1.50004Z" stroke="#6BBF73" stroke-width="3"/>
</g>
<path d="M79.7927 41.25C79.0593 39.5833 78.3177 37.925 77.5677 36.275C76.8177 34.6083 76.0843 32.925 75.3677 31.225C75.0177 30.425 74.676 29.6167 74.3427 28.8C74.026 27.9833 73.7093 27.1583 73.3927 26.325C73.3927 26.5083 73.3843 26.6917 73.3677 26.875C73.3677 27.0583 73.3677 27.2417 73.3677 27.425C73.351 28.025 73.326 28.75 73.2927 29.6C73.276 30.4333 73.251 31.3333 73.2177 32.3C73.1843 33.25 73.1593 34.2083 73.1427 35.175C73.126 36.125 73.1093 37.025 73.0927 37.875C73.076 38.2417 73.0593 38.6083 73.0427 38.975C73.0427 39.3417 73.026 39.6833 72.9927 40C73.3093 39.9833 73.6177 39.9667 73.9177 39.95C74.2343 39.9333 74.551 39.9167 74.8677 39.9V41H70.0927V40.175C70.6093 40.1583 70.9843 40.05 71.2177 39.85C71.4677 39.6333 71.626 39.35 71.6927 39C71.7593 38.65 71.801 38.275 71.8177 37.875L72.2927 26.475C72.3093 26.1417 72.3177 25.8083 72.3177 25.475C72.3343 25.1417 72.351 24.8167 72.3677 24.5C72.0677 24.5167 71.7677 24.5333 71.4677 24.55C71.1677 24.55 70.8677 24.5583 70.5677 24.575V23.5H74.3927L78.6927 33.425C79.0093 34.175 79.326 34.925 79.6427 35.675C79.976 36.4083 80.3093 37.1667 80.6427 37.95H80.6927C80.876 37.5 81.0927 36.9667 81.3427 36.35C81.5927 35.7167 81.801 35.175 81.9677 34.725C82.701 32.8917 83.4593 31.0583 84.2427 29.225C85.0427 27.375 85.826 25.4667 86.5927 23.5H90.2927V24.325C89.676 24.3083 89.2177 24.5 88.9177 24.9C88.6177 25.3 88.501 26.0167 88.5677 27.05L89.2177 38.425C89.251 38.7083 89.2677 38.9833 89.2677 39.25C89.2677 39.5167 89.2677 39.7583 89.2677 39.975C89.5677 39.9583 89.8677 39.95 90.1677 39.95C90.4843 39.9333 90.7927 39.9167 91.0927 39.9V41H85.4927V40.175C86.276 40.1417 86.7593 39.875 86.9427 39.375C87.126 38.875 87.1927 38.15 87.1427 37.2L86.6427 28.95C86.626 28.55 86.601 28.15 86.5677 27.75C86.551 27.35 86.526 26.95 86.4927 26.55C86.4427 26.6667 86.3843 26.7917 86.3177 26.925C86.2677 27.0583 86.2177 27.2 86.1677 27.35L80.5427 41.25H79.7927ZM97.1948 41V40.175C97.8282 40.1417 98.2532 39.9917 98.4698 39.725C98.7032 39.4583 98.8282 39.1 98.8448 38.65C98.8782 38.1833 98.8948 37.6667 98.8948 37.1L98.9198 34.25L94.5698 27.375C94.1532 26.7083 93.8365 26.15 93.6198 25.7C93.4198 25.25 93.2865 24.8667 93.2198 24.55C92.9532 24.5667 92.6948 24.575 92.4448 24.575C92.1948 24.575 91.9365 24.5833 91.6698 24.6V23.5H98.1198V24.325C97.3532 24.325 96.8198 24.4417 96.5198 24.675C96.2198 24.9083 96.1032 25.2333 96.1698 25.65C96.2532 26.05 96.4615 26.5167 96.7948 27.05L98.7948 30.2C99.0282 30.5667 99.2698 30.9417 99.5198 31.325C99.7698 31.6917 100.045 32.0833 100.345 32.5H100.395C100.578 32.1333 100.761 31.7833 100.945 31.45C101.128 31.1 101.303 30.7667 101.47 30.45L103.595 26.425C103.728 26.1917 103.903 25.8833 104.12 25.5C104.336 25.1167 104.561 24.7917 104.795 24.525C104.478 24.5417 104.153 24.5583 103.82 24.575C103.486 24.575 103.153 24.5833 102.82 24.6V23.5H107.92V24.325C107.103 24.375 106.428 24.6583 105.895 25.175C105.378 25.6917 104.828 26.4833 104.245 27.55C103.678 28.6167 103.128 29.6417 102.595 30.625C102.078 31.6083 101.578 32.5667 101.095 33.5C101.095 33.8 101.086 34.2 101.07 34.7C101.07 35.2 101.07 35.7083 101.07 36.225C101.07 36.725 101.07 37.15 101.07 37.5C101.07 37.85 101.07 38.025 101.07 38.025C101.07 38.9083 101.045 39.5667 100.995 40C101.345 39.9833 101.686 39.9667 102.02 39.95C102.37 39.9333 102.72 39.9167 103.07 39.9V41H97.1948ZM115.607 40.175C116.24 40.1417 116.674 40 116.907 39.75C117.14 39.4833 117.265 39.125 117.282 38.675C117.315 38.2083 117.332 37.6833 117.332 37.1V26.3C117.332 25.6 117.357 25 117.407 24.5C117.107 24.5167 116.807 24.5333 116.507 24.55C116.207 24.5667 115.907 24.5833 115.607 24.6V23.5C116.49 23.4833 117.399 23.475 118.332 23.475C119.265 23.4583 120.215 23.45 121.182 23.45C123.599 23.45 125.44 23.8583 126.707 24.675C127.99 25.4917 128.665 26.7 128.732 28.3C128.765 28.95 128.665 29.6333 128.432 30.35C128.215 31.05 127.799 31.7167 127.182 32.35C126.582 32.9667 125.732 33.4667 124.632 33.85C123.532 34.2333 122.124 34.425 120.407 34.425C120.34 34.425 120.215 34.425 120.032 34.425C119.849 34.425 119.674 34.4167 119.507 34.4V38.025C119.507 38.9083 119.482 39.5667 119.432 40C119.815 39.9667 120.199 39.9417 120.582 39.925C120.965 39.9083 121.349 39.8917 121.732 39.875V41H115.607V40.175ZM119.507 33.375C119.824 33.4083 120.09 33.4333 120.307 33.45C120.54 33.45 120.815 33.45 121.132 33.45C122.082 33.45 122.949 33.2667 123.732 32.9C124.515 32.5167 125.14 31.975 125.607 31.275C126.074 30.575 126.307 29.7417 126.307 28.775C126.307 27.725 126.082 26.8833 125.632 26.25C125.199 25.6 124.59 25.1333 123.807 24.85C123.04 24.5667 122.149 24.425 121.132 24.425C120.549 24.425 120.14 24.55 119.907 24.8C119.69 25.05 119.565 25.4 119.532 25.85C119.515 26.2833 119.507 26.8 119.507 27.4V33.375ZM130.646 41V40.175C131.279 40.1417 131.713 40 131.946 39.75C132.179 39.4833 132.304 39.125 132.321 38.675C132.354 38.2083 132.371 37.6833 132.371 37.1V26.3C132.371 25.6 132.396 25 132.446 24.5C132.146 24.5167 131.846 24.5333 131.546 24.55C131.246 24.5667 130.946 24.5833 130.646 24.6V23.5H136.271V24.325C135.654 24.3417 135.221 24.4833 134.971 24.75C134.738 25.0167 134.604 25.375 134.571 25.825C134.554 26.275 134.546 26.8 134.546 27.4V38.125C134.546 38.9917 134.521 39.6417 134.471 40.075L139.146 40C140.196 39.9833 140.988 39.65 141.521 39C142.071 38.35 142.346 37.2917 142.346 35.825H143.196L143.046 41H130.646ZM143.989 41V40.175C144.489 40.175 144.872 40.0417 145.139 39.775C145.406 39.5083 145.622 39.1417 145.789 38.675C145.972 38.2083 146.181 37.6667 146.414 37.05L151.564 23.025H152.164L157.739 37.25C157.872 37.6 158.022 38.05 158.189 38.6C158.356 39.15 158.422 39.6167 158.389 40C158.672 39.9833 158.956 39.9667 159.239 39.95C159.522 39.9333 159.806 39.9167 160.089 39.9V41H154.364V40.175C154.997 40.1583 155.414 40.0167 155.614 39.75C155.814 39.4833 155.889 39.1667 155.839 38.8C155.789 38.4333 155.706 38.1 155.589 37.8L154.714 35.45L148.214 35.6L147.339 38.275C147.222 38.675 147.114 38.9917 147.014 39.225C146.931 39.4583 146.831 39.7167 146.714 40C147.047 39.9833 147.372 39.9667 147.689 39.95C148.022 39.9333 148.347 39.9167 148.664 39.9V41H143.989ZM148.589 34.525H154.364L152.589 29.75C152.406 29.2333 152.214 28.725 152.014 28.225C151.831 27.7083 151.647 27.1917 151.464 26.675H151.414C151.247 27.1417 151.072 27.6083 150.889 28.075C150.722 28.5417 150.547 29.0167 150.364 29.5L148.589 34.525ZM174.839 41.4L164.864 28C164.714 27.8 164.564 27.6083 164.414 27.425C164.28 27.225 164.139 27.025 163.989 26.825H163.964L164.039 37.525C164.039 37.9417 164.039 38.3583 164.039 38.775C164.039 39.1917 164.022 39.6 163.989 40C164.289 39.9833 164.589 39.9667 164.889 39.95C165.189 39.9333 165.489 39.9167 165.789 39.9V41H161.214V40.175C161.73 40.175 162.097 40.0667 162.314 39.85C162.547 39.6167 162.697 39.35 162.764 39.05C162.83 38.7333 162.864 38.45 162.864 38.2L162.889 26.175V24.5C162.622 24.5167 162.347 24.5333 162.064 24.55C161.78 24.5667 161.497 24.5833 161.214 24.6V23.5H164.189L173.564 36.05C173.78 36.3333 173.989 36.6167 174.189 36.9C174.405 37.1833 174.622 37.4667 174.839 37.75H174.864L174.889 26.3C174.889 25.6 174.914 25 174.964 24.5C174.664 24.5167 174.364 24.5333 174.064 24.55C173.764 24.5667 173.464 24.5833 173.164 24.6V23.5H177.764V24.325C177.147 24.3417 176.722 24.4833 176.489 24.75C176.255 25.0167 176.13 25.375 176.114 25.825C176.097 26.275 176.089 26.8 176.089 27.4L176.039 41.4H174.839ZM193.307 28.775C193.29 27.7917 193.19 26.975 193.007 26.325C192.823 25.675 192.498 25.1917 192.032 24.875C191.582 24.5417 190.923 24.3833 190.057 24.4H187.932L187.907 38.025C187.907 38.9083 187.882 39.5667 187.832 40C188.182 39.9833 188.523 39.9667 188.857 39.95C189.207 39.9333 189.557 39.9167 189.907 39.9V41H184.032V40.175C184.665 40.1417 185.09 39.9917 185.307 39.725C185.54 39.4583 185.665 39.1 185.682 38.65C185.715 38.1833 185.732 37.6667 185.732 37.1L185.757 24.425L183.182 24.45C182.132 24.45 181.39 24.8 180.957 25.5C180.523 26.2 180.307 27.2917 180.307 28.775H179.382L179.532 23.5H194.107L194.257 28.775H193.307ZM206.023 28.8C205.973 28 205.781 27.2417 205.448 26.525C205.114 25.8083 204.631 25.225 203.998 24.775C203.364 24.325 202.556 24.1 201.573 24.1C200.539 24.1 199.748 24.3917 199.198 24.975C198.648 25.5583 198.373 26.2417 198.373 27.025C198.373 27.725 198.573 28.3167 198.973 28.8C199.373 29.2667 199.889 29.6833 200.523 30.05C201.173 30.4 201.856 30.7417 202.573 31.075C203.206 31.3583 203.839 31.6667 204.473 32C205.106 32.3167 205.681 32.6833 206.198 33.1C206.714 33.5167 207.123 34.0167 207.423 34.6C207.739 35.1667 207.898 35.85 207.898 36.65C207.898 38.0333 207.389 39.175 206.373 40.075C205.356 40.9583 203.914 41.4 202.048 41.4C201.298 41.4 200.523 41.2917 199.723 41.075C198.923 40.8583 198.214 40.5417 197.598 40.125L197.723 41.2H196.423L196.273 35.875H197.248C197.331 37.3417 197.839 38.4583 198.773 39.225C199.706 39.975 200.831 40.35 202.148 40.35C202.798 40.35 203.398 40.2333 203.948 40C204.498 39.75 204.931 39.3917 205.248 38.925C205.581 38.4583 205.748 37.8917 205.748 37.225C205.748 36.475 205.548 35.85 205.148 35.35C204.748 34.85 204.231 34.4167 203.598 34.05C202.964 33.6833 202.289 33.3333 201.573 33C200.939 32.7167 200.314 32.4167 199.698 32.1C199.081 31.7833 198.514 31.425 197.998 31.025C197.498 30.6083 197.089 30.1167 196.773 29.55C196.473 28.9833 196.323 28.3 196.323 27.5C196.323 27.0667 196.398 26.6 196.548 26.1C196.698 25.6 196.956 25.125 197.323 24.675C197.706 24.2083 198.223 23.8333 198.873 23.55C199.539 23.25 200.381 23.1 201.398 23.1C202.031 23.1 202.739 23.1917 203.523 23.375C204.323 23.5417 205.064 23.875 205.748 24.375L205.648 23.3H206.923V28.8H206.023Z" fill="black"/>
<defs>
<filter id="filter0_d" x="0.35968" y="3.05176e-05" width="274.72" height="70" filterUnits="userSpaceOnUse" color-interpolation-filters="sRGB">
<feFlood flood-opacity="0" result="BackgroundImageFix"/>
<feColorMatrix in="SourceAlpha" type="matrix" values="0 0 0 0 0 0 0 0 0 0 0 0 0 0 0 0 0 0 127 0"/>
<feOffset dy="4"/>
<feGaussianBlur stdDeviation="2"/>
<feColorMatrix type="matrix" values="0 0 0 0 0 0 0 0 0 0 0 0 0 0 0 0 0 0 0.25 0"/>
<feBlend mode="normal" in2="BackgroundImageFix" result="effect1_dropShadow"/>
<feBlend mode="normal" in="SourceGraphic" in2="effect1_dropShadow" result="shape"/>
</filter>
</defs>
</svg>
