<svg width="38" height="37" viewBox="0 0 38 37" fill="none" xmlns="http://www.w3.org/2000/svg">
<g id="sentiment_neutral_24px">
<path id="icon/social/sentiment_neutral_24px" fill-rule="evenodd" clip-rule="evenodd" d="M18.9842 3.08334C10.2442 3.08334 3.16668 9.99001 3.16668 18.5C3.16668 27.01 10.2442 33.9167 18.9842 33.9167C27.74 33.9167 34.8333 27.01 34.8333 18.5C34.8333 9.99001 27.74 3.08334 18.9842 3.08334ZM11.0834 14.6458C11.0834 13.3687 12.1467 12.3333 13.4584 12.3333C14.77 12.3333 15.8334 13.3687 15.8334 14.6458C15.8334 15.923 14.77 16.9583 13.4584 16.9583C12.1467 16.9583 11.0834 15.923 11.0834 14.6458ZM24.5417 12.3333C23.23 12.3333 22.1667 13.3687 22.1667 14.6458C22.1667 15.923 23.23 16.9583 24.5417 16.9583C25.8534 16.9583 26.9167 15.923 26.9167 14.6458C26.9167 13.3687 25.8534 12.3333 24.5417 12.3333ZM14.25 21.5833H23.75V23.8958H14.25V21.5833ZM6.33336 18.5C6.33336 25.3142 12.0017 30.8333 19 30.8333C25.9984 30.8333 31.6667 25.3142 31.6667 18.5C31.6667 11.6858 25.9984 6.16668 19 6.16668C12.0017 6.16668 6.33336 11.6858 6.33336 18.5Z" fill="#2D9CDB"/>
</g>
</svg>
