<svg width="231" height="33" viewBox="0 0 231 33" fill="none" xmlns="http://www.w3.org/2000/svg">
<path d="M23.8716 11.12C23.8716 12.82 23.4316 14.38 22.5516 15.8C21.6716 17.22 20.3916 18.38 18.7116 19.28C17.0316 20.18 15.0316 20.71 12.7116 20.87L11.4216 28.1C10.9216 30.88 9.56164 32.27 7.34164 32.27C6.12164 32.27 4.99164 31.91 3.95164 31.19C2.93164 30.47 2.11164 29.37 1.49164 27.89C0.871641 26.41 0.561641 24.59 0.561641 22.43C0.561641 18.37 1.21164 14.93 2.51164 12.11C3.83164 9.27 5.59164 7.15 7.79164 5.75C10.0116 4.33 12.4516 3.62 15.1116 3.62C16.9916 3.62 18.5816 3.95 19.8816 4.61C21.2016 5.27 22.1916 6.17 22.8516 7.31C23.5316 8.43 23.8716 9.7 23.8716 11.12ZM13.2516 17.78C17.3516 17.26 19.4016 15.13 19.4016 11.39C19.4016 10.07 18.9616 9 18.0816 8.18C17.2216 7.34 15.8816 6.92 14.0616 6.92C12.0016 6.92 10.2016 7.57 8.66164 8.87C7.14164 10.17 5.96164 11.98 5.12164 14.3C4.30164 16.6 3.89164 19.23 3.89164 22.19C3.89164 23.43 4.01164 24.53 4.25164 25.49C4.51164 26.45 4.83164 27.2 5.21164 27.74C5.61164 28.26 5.99164 28.52 6.35164 28.52C6.85164 28.52 7.23164 27.83 7.49164 26.45L8.48164 20.78C7.70164 20.66 7.36164 20.61 7.46164 20.63C6.86164 20.53 6.47164 20.35 6.29164 20.09C6.11164 19.81 6.02164 19.46 6.02164 19.04C6.02164 18.6 6.14164 18.25 6.38164 17.99C6.64164 17.73 6.99164 17.6 7.43164 17.6C7.63164 17.6 7.78164 17.61 7.88164 17.63C8.36164 17.71 8.73164 17.76 8.99164 17.78C9.25164 16.22 9.62164 14.13 10.1016 11.51C10.2216 10.83 10.4916 10.35 10.9116 10.07C11.3516 9.77 11.8616 9.62 12.4416 9.62C13.1016 9.62 13.5716 9.75 13.8516 10.01C14.1516 10.25 14.3016 10.64 14.3016 11.18C14.3016 11.5 14.2816 11.76 14.2416 11.96L13.2516 17.78ZM36.1323 22.31C36.3923 22.31 36.5923 22.43 36.7323 22.67C36.8923 22.91 36.9723 23.24 36.9723 23.66C36.9723 24.46 36.7823 25.08 36.4023 25.52C35.5423 26.58 34.6023 27.45 33.5823 28.13C32.5823 28.81 31.4423 29.15 30.1623 29.15C28.4023 29.15 27.0923 28.35 26.2323 26.75C25.3923 25.15 24.9723 23.08 24.9723 20.54C24.9723 18.1 25.2823 15.32 25.9023 12.2C26.5423 9.08 27.4723 6.4 28.6923 4.16C29.9323 1.92 31.4023 0.799998 33.1023 0.799998C34.0623 0.799998 34.8123 1.25 35.3523 2.15C35.9123 3.03 36.1923 4.3 36.1923 5.96C36.1923 8.34 35.5323 11.1 34.2123 14.24C32.8923 17.38 31.1023 20.49 28.8423 23.57C28.9823 24.39 29.2123 24.98 29.5323 25.34C29.8523 25.68 30.2723 25.85 30.7923 25.85C31.6123 25.85 32.3323 25.62 32.9523 25.16C33.5723 24.68 34.3623 23.87 35.3223 22.73C35.5623 22.45 35.8323 22.31 36.1323 22.31ZM32.4423 3.77C31.9823 3.77 31.4623 4.6 30.8823 6.26C30.3023 7.92 29.7923 9.98 29.3523 12.44C28.9123 14.9 28.6723 17.26 28.6323 19.52C30.0523 17.18 31.1823 14.84 32.0223 12.5C32.8623 10.14 33.2823 7.99 33.2823 6.05C33.2823 4.53 33.0023 3.77 32.4423 3.77ZM37.9445 29.15C36.7045 29.15 35.7145 28.7 34.9745 27.8C34.2345 26.9 33.8645 25.72 33.8645 24.26C33.8645 22.66 34.2345 21.15 34.9745 19.73C35.7145 18.29 36.6945 17.14 37.9145 16.28C39.1545 15.4 40.4645 14.96 41.8445 14.96C42.2845 14.96 42.5745 15.05 42.7145 15.23C42.8745 15.39 43.0045 15.69 43.1045 16.13C43.5245 16.05 43.9645 16.01 44.4245 16.01C45.4045 16.01 45.8945 16.36 45.8945 17.06C45.8945 17.48 45.7445 18.48 45.4445 20.06C44.9845 22.36 44.7545 23.96 44.7545 24.86C44.7545 25.16 44.8245 25.4 44.9645 25.58C45.1245 25.76 45.3245 25.85 45.5645 25.85C45.9445 25.85 46.4045 25.61 46.9445 25.13C47.4845 24.63 48.2145 23.83 49.1345 22.73C49.3745 22.45 49.6445 22.31 49.9445 22.31C50.2045 22.31 50.4045 22.43 50.5445 22.67C50.7045 22.91 50.7845 23.24 50.7845 23.66C50.7845 24.46 50.5945 25.08 50.2145 25.52C49.3945 26.54 48.5245 27.4 47.6045 28.1C46.6845 28.8 45.7945 29.15 44.9345 29.15C44.2745 29.15 43.6645 28.93 43.1045 28.49C42.5645 28.03 42.1545 27.41 41.8745 26.63C40.8345 28.31 39.5245 29.15 37.9445 29.15ZM39.0245 26.12C39.4645 26.12 39.8845 25.86 40.2845 25.34C40.6845 24.82 40.9745 24.13 41.1545 23.27L42.2645 17.75C41.4245 17.77 40.6445 18.09 39.9245 18.71C39.2245 19.31 38.6645 20.11 38.2445 21.11C37.8245 22.11 37.6145 23.17 37.6145 24.29C37.6145 24.91 37.7345 25.37 37.9745 25.67C38.2345 25.97 38.5845 26.12 39.0245 26.12ZM50.4763 29.15C49.7163 29.15 49.1763 28.75 48.8563 27.95C48.5563 27.15 48.4063 25.87 48.4063 24.11C48.4063 21.51 48.7763 19.04 49.5163 16.7C49.6963 16.12 49.9863 15.7 50.3863 15.44C50.8063 15.16 51.3863 15.02 52.1263 15.02C52.5263 15.02 52.8063 15.07 52.9663 15.17C53.1263 15.27 53.2063 15.46 53.2063 15.74C53.2063 16.06 53.0563 16.78 52.7563 17.9C52.5563 18.7 52.3963 19.4 52.2763 20C52.1563 20.6 52.0563 21.34 51.9763 22.22C52.6363 20.5 53.3763 19.1 54.1963 18.02C55.0163 16.94 55.8163 16.17 56.5963 15.71C57.3963 15.25 58.1263 15.02 58.7863 15.02C60.0863 15.02 60.7363 15.67 60.7363 16.97C60.7363 17.75 60.5163 19.16 60.0763 21.2C59.6963 22.94 59.5063 24.09 59.5063 24.65C59.5063 25.45 59.7963 25.85 60.3763 25.85C60.7763 25.85 61.2463 25.61 61.7863 25.13C62.3463 24.63 63.0863 23.83 64.0063 22.73C64.2463 22.45 64.5163 22.31 64.8163 22.31C65.0763 22.31 65.2763 22.43 65.4163 22.67C65.5763 22.91 65.6562 23.24 65.6562 23.66C65.6562 24.46 65.4663 25.08 65.0863 25.52C64.2263 26.58 63.2963 27.45 62.2963 28.13C61.3163 28.81 60.1963 29.15 58.9363 29.15C57.9163 29.15 57.1463 28.86 56.6263 28.28C56.1063 27.68 55.8463 26.82 55.8463 25.7C55.8463 25.14 55.9863 24.14 56.2663 22.7C56.5263 21.44 56.6563 20.57 56.6563 20.09C56.6563 19.77 56.5463 19.61 56.3263 19.61C56.0663 19.61 55.6963 19.95 55.2163 20.63C54.7563 21.29 54.2763 22.17 53.7763 23.27C53.2963 24.37 52.9063 25.53 52.6063 26.75C52.3863 27.69 52.1263 28.33 51.8263 28.67C51.5463 28.99 51.0963 29.15 50.4763 29.15ZM68.1791 17.87C68.1391 18.87 68.1191 19.65 68.1191 20.21C68.1191 21.65 68.1891 22.78 68.3291 23.6C68.4891 24.4 68.7391 24.98 69.0791 25.34C69.4391 25.68 69.9291 25.85 70.5491 25.85C70.8691 25.85 71.2491 25.75 71.6891 25.55C72.1291 25.35 72.5291 25.09 72.8891 24.77C73.1091 24.57 73.3291 24.47 73.5491 24.47C73.7891 24.47 73.9791 24.61 74.1191 24.89C74.2791 25.15 74.3591 25.47 74.3591 25.85C74.3591 26.23 74.2791 26.6 74.1191 26.96C73.9791 27.32 73.7591 27.62 73.4591 27.86C72.4191 28.72 71.2391 29.15 69.9191 29.15C68.0191 29.15 66.6291 28.36 65.7491 26.78C64.8691 25.18 64.4291 23.1 64.4291 20.54C64.4291 19.66 64.4591 18.77 64.5191 17.87H63.3491C62.7491 17.87 62.3391 17.76 62.1191 17.54C61.9191 17.32 61.8191 16.97 61.8191 16.49C61.8191 15.37 62.2691 14.81 63.1691 14.81H64.8791C65.2191 12.61 65.7391 10.6 66.4391 8.78C67.1391 6.96 67.9791 5.51 68.9591 4.43C69.9591 3.35 71.0291 2.81 72.1691 2.81C73.0091 2.81 73.6691 3.18 74.1491 3.92C74.6291 4.66 74.8691 5.59 74.8691 6.71C74.8691 9.81 73.5691 12.51 70.9691 14.81H74.3291C74.6491 14.81 74.8791 14.88 75.0191 15.02C75.1591 15.16 75.2291 15.42 75.2291 15.8C75.2291 17.18 74.0991 17.87 71.8391 17.87H68.1791ZM71.3591 5.69C71.0591 5.69 70.7191 6.07 70.3391 6.83C69.9791 7.57 69.6291 8.61 69.2891 9.95C68.9691 11.27 68.6991 12.74 68.4791 14.36C69.6591 13.34 70.5391 12.2 71.1191 10.94C71.7191 9.66 72.0191 8.5 72.0191 7.46C72.0191 6.28 71.7991 5.69 71.3591 5.69ZM106.811 11.12C106.811 12.82 106.371 14.38 105.491 15.8C104.611 17.22 103.331 18.38 101.651 19.28C99.9711 20.18 97.9711 20.71 95.6511 20.87L94.3611 28.1C93.8611 30.88 92.5011 32.27 90.2811 32.27C89.0611 32.27 87.9311 31.91 86.8911 31.19C85.8711 30.47 85.0511 29.37 84.4311 27.89C83.8111 26.41 83.5011 24.59 83.5011 22.43C83.5011 18.37 84.1511 14.93 85.4511 12.11C86.7711 9.27 88.5311 7.15 90.7311 5.75C92.9511 4.33 95.3911 3.62 98.0511 3.62C99.9311 3.62 101.521 3.95 102.821 4.61C104.141 5.27 105.131 6.17 105.791 7.31C106.471 8.43 106.811 9.7 106.811 11.12ZM96.1911 17.78C100.291 17.26 102.341 15.13 102.341 11.39C102.341 10.07 101.901 9 101.021 8.18C100.161 7.34 98.8211 6.92 97.0011 6.92C94.9411 6.92 93.1411 7.57 91.6011 8.87C90.0811 10.17 88.9011 11.98 88.0611 14.3C87.2411 16.6 86.8311 19.23 86.8311 22.19C86.8311 23.43 86.9511 24.53 87.1911 25.49C87.4511 26.45 87.7711 27.2 88.1511 27.74C88.5511 28.26 88.9311 28.52 89.2911 28.52C89.7911 28.52 90.1711 27.83 90.4311 26.45L91.4211 20.78C90.6411 20.66 90.3011 20.61 90.4011 20.63C89.8011 20.53 89.4111 20.35 89.2311 20.09C89.0511 19.81 88.9611 19.46 88.9611 19.04C88.9611 18.6 89.0811 18.25 89.3211 17.99C89.5811 17.73 89.9311 17.6 90.3711 17.6C90.5711 17.6 90.7211 17.61 90.8211 17.63C91.3011 17.71 91.6711 17.76 91.9311 17.78C92.1911 16.22 92.5611 14.13 93.0411 11.51C93.1611 10.83 93.4311 10.35 93.8511 10.07C94.2911 9.77 94.8011 9.62 95.3811 9.62C96.0411 9.62 96.5111 9.75 96.7911 10.01C97.0911 10.25 97.2411 10.64 97.2411 11.18C97.2411 11.5 97.2211 11.76 97.1811 11.96L96.1911 17.78ZM108.843 29.15C107.603 29.15 106.613 28.7 105.873 27.8C105.133 26.9 104.763 25.72 104.763 24.26C104.763 22.66 105.133 21.15 105.873 19.73C106.613 18.29 107.593 17.14 108.813 16.28C110.053 15.4 111.363 14.96 112.743 14.96C113.183 14.96 113.473 15.05 113.613 15.23C113.773 15.39 113.903 15.69 114.003 16.13C114.423 16.05 114.863 16.01 115.323 16.01C116.303 16.01 116.793 16.36 116.793 17.06C116.793 17.48 116.643 18.48 116.343 20.06C115.883 22.36 115.653 23.96 115.653 24.86C115.653 25.16 115.723 25.4 115.863 25.58C116.023 25.76 116.223 25.85 116.463 25.85C116.843 25.85 117.303 25.61 117.843 25.13C118.383 24.63 119.113 23.83 120.033 22.73C120.273 22.45 120.543 22.31 120.843 22.31C121.103 22.31 121.303 22.43 121.443 22.67C121.603 22.91 121.683 23.24 121.683 23.66C121.683 24.46 121.493 25.08 121.113 25.52C120.293 26.54 119.423 27.4 118.503 28.1C117.583 28.8 116.693 29.15 115.833 29.15C115.173 29.15 114.563 28.93 114.003 28.49C113.463 28.03 113.053 27.41 112.773 26.63C111.733 28.31 110.423 29.15 108.843 29.15ZM109.923 26.12C110.363 26.12 110.783 25.86 111.183 25.34C111.583 24.82 111.873 24.13 112.053 23.27L113.163 17.75C112.323 17.77 111.543 18.09 110.823 18.71C110.123 19.31 109.563 20.11 109.143 21.11C108.723 22.11 108.513 23.17 108.513 24.29C108.513 24.91 108.633 25.37 108.873 25.67C109.133 25.97 109.483 26.12 109.923 26.12ZM121.375 29.15C120.615 29.15 120.075 28.75 119.755 27.95C119.455 27.15 119.305 25.87 119.305 24.11C119.305 21.51 119.675 19.04 120.415 16.7C120.595 16.12 120.885 15.7 121.285 15.44C121.705 15.16 122.285 15.02 123.025 15.02C123.425 15.02 123.705 15.07 123.865 15.17C124.025 15.27 124.105 15.46 124.105 15.74C124.105 16.06 123.955 16.78 123.655 17.9C123.455 18.7 123.295 19.4 123.175 20C123.055 20.6 122.955 21.34 122.875 22.22C123.535 20.5 124.275 19.1 125.095 18.02C125.915 16.94 126.715 16.17 127.495 15.71C128.295 15.25 129.025 15.02 129.685 15.02C130.985 15.02 131.635 15.67 131.635 16.97C131.635 17.23 131.545 17.86 131.365 18.86C131.205 19.66 131.125 20.16 131.125 20.36C131.125 21.06 131.375 21.41 131.875 21.41C132.435 21.41 133.155 20.97 134.035 20.09C134.295 19.83 134.565 19.7 134.845 19.7C135.105 19.7 135.305 19.82 135.445 20.06C135.605 20.28 135.685 20.58 135.685 20.96C135.685 21.7 135.485 22.28 135.085 22.7C134.525 23.28 133.865 23.78 133.105 24.2C132.365 24.6 131.575 24.8 130.735 24.8C129.675 24.8 128.865 24.53 128.305 23.99C127.765 23.45 127.495 22.72 127.495 21.8C127.495 21.5 127.525 21.2 127.585 20.9C127.625 20.5 127.645 20.23 127.645 20.09C127.645 19.77 127.535 19.61 127.315 19.61C127.015 19.61 126.615 19.95 126.115 20.63C125.635 21.29 125.155 22.17 124.675 23.27C124.195 24.37 123.805 25.53 123.505 26.75C123.285 27.69 123.025 28.33 122.725 28.67C122.445 28.99 121.995 29.15 121.375 29.15ZM146.277 22.31C146.537 22.31 146.737 22.43 146.877 22.67C147.037 22.91 147.117 23.24 147.117 23.66C147.117 24.46 146.927 25.08 146.547 25.52C145.807 26.42 144.757 27.25 143.397 28.01C142.057 28.77 140.617 29.15 139.077 29.15C136.977 29.15 135.347 28.58 134.187 27.44C133.027 26.3 132.447 24.74 132.447 22.76C132.447 21.38 132.737 20.1 133.317 18.92C133.897 17.72 134.697 16.77 135.717 16.07C136.757 15.37 137.927 15.02 139.227 15.02C140.387 15.02 141.317 15.37 142.017 16.07C142.717 16.75 143.067 17.68 143.067 18.86C143.067 20.24 142.567 21.43 141.567 22.43C140.587 23.41 138.917 24.19 136.557 24.77C137.057 25.69 138.007 26.15 139.407 26.15C140.307 26.15 141.327 25.84 142.467 25.22C143.627 24.58 144.627 23.75 145.467 22.73C145.707 22.45 145.977 22.31 146.277 22.31ZM138.717 17.96C137.977 17.96 137.347 18.39 136.827 19.25C136.327 20.11 136.077 21.15 136.077 22.37V22.43C137.257 22.15 138.187 21.73 138.867 21.17C139.547 20.61 139.887 19.96 139.887 19.22C139.887 18.84 139.777 18.54 139.557 18.32C139.357 18.08 139.077 17.96 138.717 17.96ZM146.804 29.15C146.044 29.15 145.504 28.75 145.184 27.95C144.884 27.15 144.734 25.87 144.734 24.11C144.734 21.51 145.104 19.04 145.844 16.7C146.024 16.12 146.314 15.7 146.714 15.44C147.134 15.16 147.714 15.02 148.454 15.02C148.854 15.02 149.134 15.07 149.294 15.17C149.454 15.27 149.534 15.46 149.534 15.74C149.534 16.06 149.384 16.78 149.084 17.9C148.884 18.7 148.724 19.4 148.604 20C148.484 20.6 148.384 21.34 148.304 22.22C148.964 20.5 149.704 19.1 150.524 18.02C151.344 16.94 152.144 16.17 152.924 15.71C153.724 15.25 154.454 15.02 155.114 15.02C156.414 15.02 157.064 15.67 157.064 16.97C157.064 17.75 156.844 19.16 156.404 21.2C156.024 22.94 155.834 24.09 155.834 24.65C155.834 25.45 156.124 25.85 156.704 25.85C157.104 25.85 157.574 25.61 158.114 25.13C158.674 24.63 159.414 23.83 160.334 22.73C160.574 22.45 160.844 22.31 161.144 22.31C161.404 22.31 161.604 22.43 161.744 22.67C161.904 22.91 161.984 23.24 161.984 23.66C161.984 24.46 161.794 25.08 161.414 25.52C160.554 26.58 159.624 27.45 158.624 28.13C157.644 28.81 156.524 29.15 155.264 29.15C154.244 29.15 153.474 28.86 152.954 28.28C152.434 27.68 152.174 26.82 152.174 25.7C152.174 25.14 152.314 24.14 152.594 22.7C152.854 21.44 152.984 20.57 152.984 20.09C152.984 19.77 152.874 19.61 152.654 19.61C152.394 19.61 152.024 19.95 151.544 20.63C151.084 21.29 150.604 22.17 150.104 23.27C149.624 24.37 149.234 25.53 148.934 26.75C148.714 27.69 148.454 28.33 148.154 28.67C147.874 28.99 147.424 29.15 146.804 29.15ZM172.937 22.31C173.197 22.31 173.397 22.43 173.537 22.67C173.697 22.91 173.777 23.24 173.777 23.66C173.777 24.46 173.587 25.08 173.207 25.52C172.347 26.58 171.407 27.45 170.387 28.13C169.367 28.81 168.197 29.15 166.877 29.15C162.797 29.15 160.757 26.28 160.757 20.54C160.757 19.66 160.787 18.77 160.847 17.87H159.677C159.077 17.87 158.667 17.76 158.447 17.54C158.247 17.32 158.147 16.97 158.147 16.49C158.147 15.37 158.597 14.81 159.497 14.81H161.207C161.547 12.61 162.067 10.6 162.767 8.78C163.467 6.96 164.307 5.51 165.287 4.43C166.287 3.35 167.357 2.81 168.497 2.81C169.337 2.81 169.997 3.18 170.477 3.92C170.957 4.66 171.197 5.59 171.197 6.71C171.197 9.81 169.897 12.51 167.297 14.81H170.657C170.977 14.81 171.207 14.88 171.347 15.02C171.487 15.16 171.557 15.42 171.557 15.8C171.557 17.18 170.427 17.87 168.167 17.87H164.507C164.467 18.87 164.447 19.65 164.447 20.21C164.447 22.29 164.687 23.75 165.167 24.59C165.667 25.43 166.447 25.85 167.507 25.85C168.367 25.85 169.127 25.59 169.787 25.07C170.447 24.55 171.227 23.77 172.127 22.73C172.367 22.45 172.637 22.31 172.937 22.31ZM167.687 5.69C167.387 5.69 167.047 6.07 166.667 6.83C166.307 7.57 165.957 8.61 165.617 9.95C165.297 11.27 165.027 12.74 164.807 14.36C165.987 13.34 166.867 12.2 167.447 10.94C168.047 9.66 168.347 8.5 168.347 7.46C168.347 6.28 168.127 5.69 167.687 5.69ZM187.985 22.31C188.245 22.31 188.445 22.43 188.585 22.67C188.745 22.91 188.825 23.24 188.825 23.66C188.825 24.46 188.635 25.08 188.255 25.52C187.335 26.58 186.385 27.45 185.405 28.13C184.445 28.81 183.345 29.15 182.105 29.15C181.085 29.15 180.315 28.86 179.795 28.28C179.275 27.68 179.015 26.82 179.015 25.7C179.015 25.14 179.155 24.14 179.435 22.7C179.695 21.44 179.825 20.57 179.825 20.09C179.825 19.77 179.715 19.61 179.495 19.61C179.235 19.61 178.865 19.95 178.385 20.63C177.905 21.29 177.425 22.17 176.945 23.27C176.465 24.37 176.075 25.53 175.775 26.75C175.395 28.35 174.455 29.15 172.955 29.15C172.355 29.15 171.955 28.94 171.755 28.52C171.575 28.08 171.485 27.3 171.485 26.18C171.485 25.54 171.495 25.03 171.515 24.65L171.545 22.25C171.545 19.17 171.855 15.96 172.475 12.62C173.115 9.28 174.045 6.48 175.265 4.22C176.505 1.94 177.985 0.799998 179.705 0.799998C180.625 0.799998 181.365 1.2 181.925 2C182.505 2.78 182.795 3.8 182.795 5.06C182.795 7.08 182.205 9.18 181.025 11.36C179.845 13.52 177.925 16.05 175.265 18.95C175.205 19.99 175.175 21.06 175.175 22.16C175.835 20.46 176.565 19.08 177.365 18.02C178.185 16.94 178.985 16.17 179.765 15.71C180.565 15.25 181.295 15.02 181.955 15.02C183.255 15.02 183.905 15.67 183.905 16.97C183.905 17.75 183.685 19.16 183.245 21.2C182.865 22.94 182.675 24.09 182.675 24.65C182.675 25.45 182.965 25.85 183.545 25.85C183.945 25.85 184.415 25.61 184.955 25.13C185.515 24.63 186.255 23.83 187.175 22.73C187.415 22.45 187.685 22.31 187.985 22.31ZM179.075 3.77C178.715 3.77 178.315 4.29 177.875 5.33C177.435 6.35 177.005 7.74 176.585 9.5C176.185 11.24 175.855 13.14 175.595 15.2C176.835 13.74 177.855 12.15 178.655 10.43C179.475 8.71 179.885 7.15 179.885 5.75C179.885 5.11 179.815 4.62 179.675 4.28C179.535 3.94 179.335 3.77 179.075 3.77ZM201.693 19.79C201.953 19.79 202.153 19.92 202.293 20.18C202.433 20.44 202.503 20.77 202.503 21.17C202.503 22.13 202.213 22.7 201.633 22.88C200.433 23.3 199.113 23.54 197.673 23.6C197.293 25.28 196.543 26.63 195.423 27.65C194.303 28.65 193.033 29.15 191.613 29.15C190.413 29.15 189.383 28.86 188.523 28.28C187.683 27.7 187.043 26.93 186.603 25.97C186.163 25.01 185.943 23.97 185.943 22.85C185.943 21.33 186.233 19.98 186.813 18.8C187.393 17.6 188.193 16.67 189.213 16.01C190.233 15.33 191.363 14.99 192.603 14.99C194.123 14.99 195.343 15.52 196.263 16.58C197.203 17.62 197.753 18.91 197.913 20.45C198.853 20.39 199.973 20.19 201.273 19.85C201.433 19.81 201.573 19.79 201.693 19.79ZM191.853 25.97C192.493 25.97 193.043 25.71 193.503 25.19C193.983 24.67 194.303 23.92 194.463 22.94C193.843 22.52 193.363 21.97 193.023 21.29C192.703 20.61 192.543 19.89 192.543 19.13C192.543 18.81 192.573 18.49 192.633 18.17H192.483C191.683 18.17 191.013 18.56 190.473 19.34C189.953 20.1 189.693 21.18 189.693 22.58C189.693 23.68 189.903 24.52 190.323 25.1C190.763 25.68 191.273 25.97 191.853 25.97ZM215.228 19.79C215.488 19.79 215.688 19.92 215.828 20.18C215.968 20.44 216.038 20.77 216.038 21.17C216.038 22.13 215.748 22.7 215.168 22.88C213.968 23.3 212.648 23.54 211.208 23.6C210.828 25.28 210.078 26.63 208.958 27.65C207.838 28.65 206.568 29.15 205.148 29.15C203.948 29.15 202.918 28.86 202.058 28.28C201.218 27.7 200.578 26.93 200.138 25.97C199.698 25.01 199.478 23.97 199.478 22.85C199.478 21.33 199.768 19.98 200.348 18.8C200.928 17.6 201.728 16.67 202.748 16.01C203.768 15.33 204.898 14.99 206.138 14.99C207.658 14.99 208.878 15.52 209.798 16.58C210.738 17.62 211.288 18.91 211.448 20.45C212.388 20.39 213.508 20.19 214.808 19.85C214.968 19.81 215.108 19.79 215.228 19.79ZM205.388 25.97C206.028 25.97 206.578 25.71 207.038 25.19C207.518 24.67 207.838 23.92 207.998 22.94C207.378 22.52 206.898 21.97 206.558 21.29C206.238 20.61 206.078 19.89 206.078 19.13C206.078 18.81 206.108 18.49 206.168 18.17H206.018C205.218 18.17 204.548 18.56 204.008 19.34C203.488 20.1 203.228 21.18 203.228 22.58C203.228 23.68 203.438 24.52 203.858 25.1C204.298 25.68 204.808 25.97 205.388 25.97ZM224.383 22.31C224.603 23.95 224.923 25.57 225.343 27.17C225.423 27.43 225.463 27.7 225.463 27.98C225.463 28.88 224.913 29.33 223.813 29.33C223.193 29.33 222.713 29.16 222.373 28.82C222.053 28.48 221.753 27.84 221.473 26.9L221.443 26.78C220.683 27.72 219.993 28.35 219.373 28.67C218.773 28.99 218.073 29.15 217.273 29.15C216.053 29.15 215.043 28.7 214.243 27.8C213.463 26.88 213.073 25.69 213.073 24.23C213.073 22.63 213.413 21.15 214.093 19.79C214.773 18.43 215.703 17.32 216.883 16.46C218.063 15.58 219.383 15.05 220.843 14.87C221.223 11.09 221.943 7.8 223.003 5C224.083 2.2 225.513 0.799998 227.293 0.799998C228.153 0.799998 228.863 1.19 229.423 1.97C230.003 2.75 230.293 3.93 230.293 5.51C230.293 7.71 229.753 10.28 228.673 13.22C227.593 16.16 226.163 19.19 224.383 22.31ZM226.963 3.74C226.383 3.74 225.833 5.22 225.313 8.18C224.813 11.14 224.473 14.36 224.293 17.84C226.513 13.04 227.623 9.14 227.623 6.14C227.623 5.38 227.553 4.79 227.413 4.37C227.293 3.95 227.143 3.74 226.963 3.74ZM218.323 26.12C218.723 26.12 219.103 25.97 219.463 25.67C219.843 25.37 220.323 24.79 220.903 23.93C220.703 22.47 220.603 20.96 220.603 19.4C220.603 18.78 220.613 18.3 220.633 17.96C219.533 18.28 218.623 19.01 217.903 20.15C217.183 21.29 216.823 22.55 216.823 23.93C216.823 25.39 217.323 26.12 218.323 26.12Z" fill="black"/>
</svg>
