<svg width="34" height="38" viewBox="0 0 34 38" fill="none" xmlns="http://www.w3.org/2000/svg">
<rect x="0.5" y="2.5" width="33" height="33" fill="white" stroke="black"/>
<path d="M16.1755 24.36C15.5955 24.36 15.0455 24.21 14.5255 23.91C14.0255 23.61 13.7755 23.09 13.7755 22.35C13.7755 21.69 14.0555 21.09 14.6155 20.55C15.1955 20.01 15.8355 19.43 16.5355 18.81C17.2955 18.17 17.9955 17.45 18.6355 16.65C19.2755 15.83 19.6155 14.84 19.6555 13.68C19.6755 12.94 19.5755 12.27 19.3555 11.67C19.1355 11.07 18.7555 10.59 18.2155 10.23C17.6755 9.87 16.9355 9.69 15.9955 9.69C15.4355 9.69 14.9055 9.8 14.4055 10.02C13.9255 10.24 13.5355 10.52 13.2355 10.86C12.9355 11.18 12.7555 11.5 12.6955 11.82C12.7955 11.98 12.8755 12.16 12.9355 12.36C13.0155 12.56 13.0555 12.77 13.0555 12.99C13.0555 13.25 12.9455 13.54 12.7255 13.86C12.5055 14.16 12.1555 14.3 11.6755 14.28C11.2355 14.24 10.9055 14.08 10.6855 13.8C10.4855 13.5 10.3855 13.13 10.3855 12.69C10.3855 12.11 10.6255 11.5 11.1055 10.86C11.6055 10.2 12.3055 9.65 13.2055 9.21C14.1055 8.75 15.1855 8.52 16.4455 8.52C18.0055 8.52 19.2255 8.78 20.1055 9.3C21.0055 9.82 21.6355 10.48 21.9955 11.28C22.3755 12.08 22.5455 12.9 22.5055 13.74C22.4455 14.56 22.1755 15.31 21.6955 15.99C21.2355 16.65 20.6755 17.26 20.0155 17.82C19.3555 18.38 18.7055 18.9 18.0655 19.38C17.4255 19.86 16.8855 20.32 16.4455 20.76C16.0055 21.18 15.7855 21.59 15.7855 21.99C15.7855 22.23 15.8755 22.46 16.0555 22.68C16.2555 22.88 16.5855 22.98 17.0455 22.98C17.2055 22.98 17.3855 22.97 17.5855 22.95C17.7855 22.91 17.9755 22.85 18.1555 22.77L18.5155 23.82C18.1955 24 17.8155 24.14 17.3755 24.24C16.9355 24.32 16.5355 24.36 16.1755 24.36ZM16.3555 30.48C15.9555 30.48 15.5855 30.32 15.2455 30C14.9055 29.7 14.7355 29.27 14.7355 28.71C14.7355 28.23 14.9055 27.82 15.2455 27.48C15.5855 27.12 15.9555 26.94 16.3555 26.94C16.8155 26.94 17.1955 27.12 17.4955 27.48C17.8155 27.82 17.9755 28.23 17.9755 28.71C17.9755 29.21 17.8155 29.63 17.4955 29.97C17.1955 30.31 16.8155 30.48 16.3555 30.48Z" fill="black"/>
</svg>
