<svg width="43" height="43" viewBox="0 0 43 43" fill="none" xmlns="http://www.w3.org/2000/svg">
<g id="search_24px">
<path id="icon/action/search_24px" fill-rule="evenodd" clip-rule="evenodd" d="M26.8123 25.5402H28.2277L37.1681 34.4985L34.4985 37.1681L25.5402 28.2277V26.8123L25.0565 26.3106C23.014 28.0665 20.3623 29.1235 17.4777 29.1235C11.0456 29.1235 5.83188 23.9098 5.83188 17.4777C5.83188 11.0456 11.0456 5.83188 17.4777 5.83188C23.9098 5.83188 29.1235 11.0456 29.1235 17.4777C29.1235 20.3623 28.0665 23.014 26.3106 25.0565L26.8123 25.5402ZM9.41521 17.4777C9.41521 21.939 13.0165 25.5402 17.4777 25.5402C21.939 25.5402 25.5402 21.939 25.5402 17.4777C25.5402 13.0165 21.939 9.41521 17.4777 9.41521C13.0165 9.41521 9.41521 13.0165 9.41521 17.4777Z" fill="#333333"/>
</g>
</svg>
