<svg width="104" height="35" viewBox="0 0 104 35" fill="none" xmlns="http://www.w3.org/2000/svg">
<path d="M81.1887 12.0969L87.5 18.776L93.8113 12.0969L95.75 14.1531L87.5 22.9031L79.25 14.1531L81.1887 12.0969Z" fill="#333333"/>
<path d="M12.1709 13.24C12.1309 12.6 11.9776 11.9933 11.7109 11.42C11.4443 10.8467 11.0576 10.38 10.5509 10.02C10.0443 9.66 9.3976 9.48 8.61094 9.48C7.78427 9.48 7.15094 9.71333 6.71094 10.18C6.27094 10.6467 6.05094 11.1933 6.05094 11.82C6.05094 12.38 6.21094 12.8533 6.53094 13.24C6.85094 13.6133 7.26427 13.9467 7.77094 14.24C8.29094 14.52 8.8376 14.7933 9.41094 15.06C9.9176 15.2867 10.4243 15.5333 10.9309 15.8C11.4376 16.0533 11.8976 16.3467 12.3109 16.68C12.7243 17.0133 13.0509 17.4133 13.2909 17.88C13.5443 18.3333 13.6709 18.88 13.6709 19.52C13.6709 20.6267 13.2643 21.54 12.4509 22.26C11.6376 22.9667 10.4843 23.32 8.99094 23.32C8.39094 23.32 7.77094 23.2333 7.13094 23.06C6.49094 22.8867 5.92427 22.6333 5.43094 22.3L5.53094 23.16H4.49094L4.37094 18.9H5.15094C5.2176 20.0733 5.62427 20.9667 6.37094 21.58C7.1176 22.18 8.0176 22.48 9.07094 22.48C9.59094 22.48 10.0709 22.3867 10.5109 22.2C10.9509 22 11.2976 21.7133 11.5509 21.34C11.8176 20.9667 11.9509 20.5133 11.9509 19.98C11.9509 19.38 11.7909 18.88 11.4709 18.48C11.1509 18.08 10.7376 17.7333 10.2309 17.44C9.72427 17.1467 9.18427 16.8667 8.61094 16.6C8.10427 16.3733 7.60427 16.1333 7.11094 15.88C6.6176 15.6267 6.16427 15.34 5.75094 15.02C5.35094 14.6867 5.02427 14.2933 4.77094 13.84C4.53094 13.3867 4.41094 12.84 4.41094 12.2C4.41094 11.8533 4.47094 11.48 4.59094 11.08C4.71094 10.68 4.9176 10.3 5.21094 9.94C5.5176 9.56667 5.93094 9.26667 6.45094 9.04C6.98427 8.8 7.6576 8.68 8.47094 8.68C8.9776 8.68 9.54427 8.75333 10.1709 8.9C10.8109 9.03333 11.4043 9.3 11.9509 9.7L11.8709 8.84H12.8909V13.24H12.1709ZM20.3986 23.32C19.4653 23.32 18.6186 23.1067 17.8586 22.68C17.0986 22.24 16.4919 21.64 16.0386 20.88C15.5986 20.1067 15.3786 19.2267 15.3786 18.24C15.3786 17.1867 15.5986 16.24 16.0386 15.4C16.4786 14.56 17.0786 13.9 17.8386 13.42C18.5986 12.9267 19.4519 12.68 20.3986 12.68C21.3319 12.68 22.1786 12.9067 22.9386 13.36C23.6986 13.8 24.3053 14.4 24.7586 15.16C25.2119 15.92 25.4386 16.7867 25.4386 17.76C25.4386 18.7867 25.2119 19.7267 24.7586 20.58C24.3186 21.42 23.7186 22.0867 22.9586 22.58C22.1986 23.0733 21.3453 23.32 20.3986 23.32ZM20.5586 22.52C21.2653 22.52 21.8253 22.32 22.2386 21.92C22.6519 21.52 22.9453 21 23.1186 20.36C23.3053 19.72 23.3986 19.0467 23.3986 18.34C23.3986 17.74 23.3386 17.1533 23.2186 16.58C23.1119 15.9933 22.9386 15.4667 22.6986 15C22.4586 14.52 22.1453 14.14 21.7586 13.86C21.3853 13.58 20.9319 13.44 20.3986 13.44C19.7053 13.44 19.1386 13.64 18.6986 14.04C18.2586 14.44 17.9319 14.96 17.7186 15.6C17.5186 16.24 17.4186 16.9267 17.4186 17.66C17.4186 18.4867 17.5319 19.2733 17.7586 20.02C17.9853 20.7533 18.3319 21.3533 18.7986 21.82C19.2653 22.2867 19.8519 22.52 20.5586 22.52ZM27.1378 22.4C27.5511 22.4 27.8378 22.3 27.9978 22.1C28.1578 21.8867 28.2511 21.6 28.2778 21.24C28.3045 20.8667 28.3178 20.44 28.3178 19.96V15.4C28.3178 15.1867 28.3178 14.9733 28.3178 14.76C28.3311 14.5467 28.3578 14.3267 28.3978 14.1C28.1578 14.1133 27.9178 14.1267 27.6778 14.14C27.4511 14.14 27.2178 14.1467 26.9778 14.16V13.34H27.5978C28.1711 13.34 28.5645 13.2867 28.7778 13.18C29.0045 13.06 29.1911 12.9333 29.3378 12.8H29.9178C29.9445 13.0133 29.9645 13.28 29.9778 13.6C29.9911 13.9067 30.0045 14.3 30.0178 14.78C30.2178 14.4467 30.4911 14.12 30.8378 13.8C31.1845 13.48 31.5711 13.2133 31.9978 13C32.4378 12.7867 32.8978 12.68 33.3778 12.68C33.7511 12.68 34.0778 12.78 34.3578 12.98C34.6378 13.18 34.7778 13.5 34.7778 13.94C34.7778 14.1133 34.6978 14.32 34.5378 14.56C34.3911 14.8 34.1378 14.9133 33.7778 14.9C33.4845 14.8867 33.2511 14.7733 33.0778 14.56C32.9045 14.3333 32.8378 14.0733 32.8778 13.78C32.3711 13.7533 31.8578 13.9467 31.3378 14.36C30.8178 14.7733 30.3845 15.3067 30.0378 15.96L30.0578 20.88C30.0578 21.1467 30.0511 21.3867 30.0378 21.6C30.0378 21.8 30.0178 22.0133 29.9778 22.24C30.1911 22.2267 30.3978 22.22 30.5978 22.22C30.8111 22.2067 31.0245 22.1933 31.2378 22.18V23H27.1378V22.4ZM39.6869 23.32C39.3802 23.32 39.0669 23.2733 38.7469 23.18C38.4269 23.1 38.1269 22.9333 37.8469 22.68C37.5802 22.4267 37.3669 22.06 37.2069 21.58C37.0469 21.0867 36.9669 20.44 36.9669 19.64L37.0069 13.84L35.4669 13.86V13C35.8135 12.9867 36.1669 12.86 36.5269 12.62C36.8869 12.3667 37.2069 12.0267 37.4869 11.6C37.7802 11.1733 37.9802 10.7067 38.0869 10.2H38.7669V13H42.1269V13.78L38.7669 13.82L38.7269 19.38C38.7269 20.2867 38.8402 20.98 39.0669 21.46C39.3069 21.94 39.7002 22.18 40.2469 22.18C40.6202 22.18 40.9669 22.0733 41.2869 21.86C41.6202 21.6467 41.9135 21.3533 42.1669 20.98L42.7069 21.42C42.3202 22.0067 41.9335 22.4333 41.5469 22.7C41.1735 22.9667 40.8269 23.1333 40.5069 23.2C40.1869 23.28 39.9135 23.32 39.6869 23.32ZM49.1352 23V22.34C49.6418 22.3267 49.9885 22.2133 50.1752 22C50.3618 21.7733 50.4618 21.4733 50.4752 21.1C50.5018 20.7133 50.5152 20.2733 50.5152 19.78V11.38C50.5152 10.66 50.5352 10.1333 50.5752 9.8C50.3352 9.81333 50.0952 9.82667 49.8552 9.84C49.6152 9.85333 49.3752 9.86667 49.1352 9.88V9C49.8685 8.98667 50.6018 8.98 51.3352 8.98C52.0818 8.96667 52.8552 8.96 53.6552 8.96C55.2018 8.96 56.4085 9.23333 57.2752 9.78C58.1552 10.3267 58.5818 11.1933 58.5552 12.38C58.5552 12.8067 58.4285 13.2333 58.1752 13.66C57.9352 14.0867 57.5685 14.4667 57.0752 14.8C56.5952 15.12 55.9885 15.3467 55.2552 15.48V15.52C56.7218 15.52 57.8285 15.86 58.5752 16.54C59.3218 17.2067 59.6952 18.0533 59.6952 19.08C59.6952 19.8933 59.4885 20.5933 59.0752 21.18C58.6618 21.7667 58.1018 22.22 57.3952 22.54C56.6885 22.8467 55.8818 23 54.9752 23H49.1352ZM52.2552 15.34L53.7152 15.3C54.4752 15.2867 55.0752 15.1333 55.5152 14.84C55.9552 14.5333 56.2685 14.1533 56.4552 13.7C56.6552 13.2467 56.7485 12.7733 56.7352 12.28C56.7218 11.56 56.5552 11.0133 56.2352 10.64C55.9285 10.2667 55.5485 10.0133 55.0952 9.88C54.6418 9.74667 54.1952 9.68 53.7552 9.68C53.1018 9.68 52.6885 9.82 52.5152 10.1C52.3418 10.38 52.2552 10.8867 52.2552 11.62V15.34ZM52.1952 22.2C52.4085 22.2133 52.6618 22.2267 52.9552 22.24C53.2618 22.24 53.5418 22.24 53.7952 22.24C54.0618 22.24 54.2352 22.24 54.3152 22.24C55.3418 22.24 56.1685 21.9867 56.7952 21.48C57.4352 20.96 57.7552 20.2 57.7552 19.2C57.7552 18.3867 57.5952 17.7533 57.2752 17.3C56.9552 16.8467 56.5352 16.5267 56.0152 16.34C55.4952 16.1533 54.9285 16.06 54.3152 16.06C53.9152 16.06 53.5485 16.0667 53.2152 16.08C52.8952 16.08 52.5752 16.0933 52.2552 16.12V20.64C52.2552 21.3333 52.2352 21.8533 52.1952 22.2ZM62.6427 28.42C62.2293 28.42 61.876 28.32 61.5827 28.12C61.2893 27.92 61.1427 27.6133 61.1427 27.2C61.1427 26.96 61.2227 26.74 61.3827 26.54C61.5427 26.34 61.7493 26.24 62.0027 26.24C62.3227 26.2267 62.536 26.3267 62.6427 26.54C62.7627 26.7533 62.8227 26.94 62.8227 27.1C62.8227 27.14 62.8227 27.18 62.8227 27.22C62.8227 27.2733 62.816 27.3267 62.8027 27.38C62.8427 27.4067 62.916 27.42 63.0227 27.42C63.1827 27.42 63.356 27.3533 63.5427 27.22C63.7293 27.0867 63.896 26.8933 64.0427 26.64C64.216 26.3467 64.416 25.9067 64.6427 25.32C64.8827 24.7333 65.1493 24.0333 65.4427 23.22L62.3227 16.54C61.976 15.7933 61.7227 15.2 61.5627 14.76C61.416 14.32 61.316 13.9933 61.2627 13.78L60.3027 13.82V13H64.4427V13.6H64.3627C63.8027 13.64 63.496 13.8533 63.4427 14.24C63.3893 14.6133 63.5427 15.1867 63.9027 15.96L66.2427 20.98C66.5493 20.1267 66.8427 19.2867 67.1227 18.46C67.4027 17.62 67.6827 16.7867 67.9627 15.96C68.0693 15.6667 68.176 15.3667 68.2827 15.06C68.4027 14.74 68.516 14.46 68.6227 14.22C68.7427 13.9667 68.8493 13.8067 68.9427 13.74L67.5627 13.82V13H70.7027V13.6C70.2093 13.7867 69.836 14.1 69.5827 14.54C69.3427 14.9667 69.096 15.52 68.8427 16.2L66.3427 23.18C65.9427 24.3 65.576 25.2467 65.2427 26.02C64.9093 26.8067 64.5427 27.4 64.1427 27.8C63.7427 28.2133 63.2427 28.42 62.6427 28.42Z" fill="black"/>
</svg>
